<svg width="42" height="42" viewBox="0 0 42 42" fill="none" xmlns="http://www.w3.org/2000/svg">
<g clip-path="url(#clip0_414_15390)">
<path d="M7.70003 1.05078H34.3001C38.5438 1.05078 42.0001 4.507 42.0001 8.75081V34.3008C42.0001 38.5446 38.5439 42.0009 34.3001 42.0009H7.70003C3.4563 42.0009 0 38.5446 0 34.3008V8.75081C8.20313e-05 4.507 3.4563 1.05078 7.70003 1.05078Z" fill="#D291FF"/>
<path d="M8.05 2.7998H33.95C37.45 2.7998 40.25 5.59978 40.25 9.09981V33.9498C40.25 37.4498 37.45 40.2498 33.95 40.2498H8.05C4.54997 40.2498 1.75 37.4498 1.75 33.9498V9.09981C1.75 5.59986 4.54997 2.7998 8.05 2.7998Z" fill="#1F0040"/>
<path d="M12.2132 25.6318L10.8205 30.8544C10.8205 30.9937 10.7508 31.0634 10.5419 31.0634H7.96544C7.82615 31.0634 7.75651 30.9937 7.82615 30.7848L12.7702 13.5154C12.8789 13.0596 12.9257 12.5911 12.9095 12.1227C12.9095 11.9834 12.9791 11.9834 13.0488 11.9834H16.6698C16.8091 11.9834 16.8091 11.9834 16.8787 12.1227L22.4494 30.8371C22.4494 30.9763 22.4494 31.046 22.3102 31.046H19.4551C19.346 31.044 19.2437 30.9928 19.1766 30.9067L17.7838 25.6318H12.2132ZM17.0876 22.8465C16.6002 20.8967 15.4164 16.7187 14.9986 14.6296C14.6505 16.649 13.6929 20.1307 12.9792 22.8465H17.0876ZM26.4187 24.5873C26.4187 26.9549 27.6025 28.5565 30.179 28.5565C31.1546 28.5853 32.1243 28.3949 33.0166 27.9994C33.1559 27.9298 33.2256 27.9994 33.2256 28.1387V30.3148C33.223 30.4439 33.1736 30.5677 33.0863 30.6629C32.1811 31.1503 30.9973 31.2896 29.6045 31.2896C25.0087 31.2896 23.2678 27.8775 23.2678 24.1172C23.2678 20.0088 25.4439 16.6663 29.1171 16.6663C32.8774 16.6663 34.2004 19.8695 34.2004 22.446C34.2131 23.0526 34.1664 23.659 34.0611 24.2565C34.0567 24.3508 33.9813 24.4262 33.8871 24.4306C32.9167 24.5461 31.9394 24.5927 30.9624 24.5699L26.4187 24.5873ZM29.97 22.2197H31.2757V21.9412C31.2757 20.9488 30.8056 19.208 28.9951 19.208C27.3239 19.208 26.6275 20.6703 26.4186 22.2023L29.97 22.2197Z" fill="white"/>
<path opacity="0.15" d="M12.2132 25.6318L10.8205 30.8544C10.8205 30.9937 10.7508 31.0634 10.5419 31.0634H7.96544C7.82615 31.0634 7.75651 30.9937 7.82615 30.7848L12.7702 13.5154C12.8789 13.0596 12.9257 12.5911 12.9095 12.1227C12.9095 11.9834 12.9791 11.9834 13.0488 11.9834H16.6698C16.8091 11.9834 16.8091 11.9834 16.8787 12.1227L22.4494 30.8371C22.4494 30.9763 22.4494 31.046 22.3102 31.046H19.4551C19.346 31.044 19.2437 30.9928 19.1766 30.9067L17.7838 25.6318H12.2132ZM17.0876 22.8465C16.6002 20.8967 15.4164 16.7187 14.9986 14.6296C14.6505 16.649 13.6929 20.1307 12.9792 22.8465H17.0876ZM26.4187 24.5873C26.4187 26.9549 27.6025 28.5565 30.179 28.5565C31.1546 28.5853 32.1243 28.3949 33.0166 27.9994C33.1559 27.9298 33.2256 27.9994 33.2256 28.1387V30.3148C33.223 30.4439 33.1736 30.5677 33.0863 30.6629C32.1811 31.1503 30.9973 31.2896 29.6045 31.2896C25.0087 31.2896 23.2678 27.8775 23.2678 24.1172C23.2678 20.0088 25.4439 16.6663 29.1171 16.6663C32.8774 16.6663 34.2004 19.8695 34.2004 22.446C34.2131 23.0526 34.1664 23.659 34.0611 24.2565C34.0567 24.3508 33.9813 24.4262 33.8871 24.4306C32.9167 24.5461 31.9394 24.5927 30.9624 24.5699L26.4187 24.5873ZM29.97 22.2197H31.2757V21.9412C31.2757 20.9488 30.8056 19.208 28.9951 19.208C27.3239 19.208 26.6275 20.6703 26.4186 22.2023L29.97 22.2197Z" fill="#D291FF"/>
</g>
<defs>
<clipPath id="clip0_414_15390">
<rect width="42" height="42" fill="white"/>
</clipPath>
</defs>
</svg>
