<svg width="42" height="42" viewBox="0 0 42 42" fill="none" xmlns="http://www.w3.org/2000/svg">
<g clip-path="url(#clip0_414_15840)">
<path d="M7.70003 1.05078H34.3001C38.5438 1.05078 42.0001 4.507 42.0001 8.75081V34.3008C42.0001 38.5446 38.5439 42.0009 34.3001 42.0009H7.70003C3.4563 42.0009 0 38.5446 0 34.3008V8.75081C8.20313e-05 4.507 3.4563 1.05078 7.70003 1.05078Z" fill="#FFE091"/>
<path d="M8.05 2.7998H33.95C37.45 2.7998 40.25 5.59978 40.25 9.09981V33.9498C40.25 37.4498 37.45 40.2498 33.95 40.2498H8.05C4.54997 40.2498 1.75 37.4498 1.75 33.9498V9.09981C1.75 5.59986 4.54997 2.7998 8.05 2.7998Z" fill="black"/>
<path d="M16.3533 29.0798L16.3477 29.0741L16.3533 29.0798ZM21.0468 25.0016H21.0457H21.0468ZM32.9155 22.4445L32.9167 22.467L32.92 22.4873L32.9155 22.4445ZM31.759 19.3271L31.7759 19.3564L31.7782 19.3598L31.759 19.3271Z" fill="black"/>
<path d="M23.7212 19.7208H23.693C22.7537 19.7208 21.8942 20.056 21.2315 20.6095C20.5655 21.172 20.1245 21.9663 20.0728 22.8663H20.0739C20.0233 23.791 20.3945 24.6483 21.047 25.2861C21.7333 25.9409 22.6614 26.3425 23.684 26.3425H23.7594C24.782 26.3425 25.7102 25.9409 26.393 25.2873C27.0455 24.6494 27.4168 23.791 27.3662 22.8652C27.3155 21.9663 26.8757 21.172 26.2097 20.6095C25.5105 20.0299 24.6294 19.7152 23.7212 19.7208Z" fill="#1976D2"/>
<path d="M30.8487 29.3356C31.6508 28.458 32.2557 27.4188 32.6228 26.288L32.6397 26.2283C32.8808 25.4692 33.0023 24.677 32.9997 23.8805C32.9975 22.3806 32.5734 20.9116 31.7757 19.6415C31.2273 18.7667 30.5297 17.9949 29.7147 17.3611L29.6944 17.3465H29.6967L21.2389 10.853C20.6854 10.4277 19.7551 10.43 19.1464 10.8552C18.5311 11.285 18.4613 11.9971 19.0081 12.4471L19.0069 12.4482L22.5237 15.3091L11.7878 15.3203C10.9013 15.3215 10.0497 15.9031 9.88094 16.6388C9.70769 17.387 10.3084 18.008 11.2309 18.0113V18.0136L16.6647 18.0023L6.92894 25.4746C6.01431 26.1743 5.71956 27.3398 6.29556 28.0767C6.88056 28.8271 8.12369 28.8282 9.04844 28.0812L14.3404 23.7511C14.3404 23.7511 14.2628 24.3361 14.2696 24.686L14.2673 24.6848C14.2741 25.0381 14.3866 25.7221 14.5553 26.2576C14.921 27.412 15.5345 28.4725 16.3531 29.3648C17.2129 30.309 18.2585 31.0654 19.4243 31.5867L19.4828 31.6103C20.7607 32.1786 22.1444 32.47 23.5429 32.4653H23.6206C25.0831 32.4653 26.4713 32.1515 27.7257 31.5912C28.9081 31.0644 29.9689 30.2992 30.8419 29.3435L30.8487 29.3356ZM29.0296 24.8232C28.7763 25.505 28.3809 26.125 27.8697 26.6423L27.8674 26.6435C26.7762 27.755 25.2507 28.385 23.5981 28.3872C21.9443 28.3917 20.4177 27.7662 19.3264 26.657C18.8199 26.1483 18.4266 25.5384 18.1722 24.8671L18.1609 24.8322C17.9714 24.3101 17.8754 23.7587 17.8774 23.2032C17.8774 22.3572 18.0968 21.563 18.4793 20.8711C18.807 20.2835 19.2434 19.7635 19.7652 19.3388L19.7753 19.331C20.8351 18.467 22.1839 18.0001 23.5958 17.9978C25.0077 17.9956 26.3577 18.4591 27.4186 19.3197C27.9586 19.7596 28.3973 20.2805 28.7146 20.8576C29.0284 21.4111 29.2377 22.0636 29.3007 22.7577L29.3018 22.7757C29.3636 23.47 29.2706 24.1693 29.0296 24.8232Z" fill="#FF9800"/>
<path d="M27.7788 31.2852C27.7619 31.293 27.7439 31.2975 27.7259 31.3054C27.7223 31.3068 27.7189 31.3087 27.7158 31.311L27.7788 31.2852Z" fill="black"/>
</g>
<defs>
<clipPath id="clip0_414_15840">
<rect width="42" height="42" fill="white"/>
</clipPath>
</defs>
</svg>
