<svg width="71" height="73" viewBox="0 0 71 73" fill="none" xmlns="http://www.w3.org/2000/svg">
<rect width="70.5134" height="72.2545" rx="13.058" fill="#163024"/>
<path d="M40.9103 18.6887L42.1759 19.3802C42.217 19.4027 42.2508 19.4365 42.2733 19.4776L42.9648 20.7432C42.9861 20.7817 43.0173 20.8137 43.0552 20.8361C43.093 20.8584 43.1362 20.8702 43.1801 20.8702C43.2241 20.8702 43.2673 20.8584 43.3051 20.8361C43.343 20.8137 43.3742 20.7817 43.3955 20.7432L44.087 19.4776C44.1096 19.4365 44.1435 19.4027 44.1847 19.3802L45.4504 18.6887C45.4888 18.6674 45.5209 18.6362 45.5432 18.5983C45.5655 18.5605 45.5773 18.5173 45.5773 18.4733C45.5773 18.4294 45.5655 18.3862 45.5432 18.3484C45.5209 18.3105 45.4888 18.2793 45.4504 18.258L44.1847 17.5665C44.1436 17.5438 44.1097 17.5099 44.087 17.4688L43.3955 16.2031C43.3742 16.1647 43.343 16.1326 43.3051 16.1103C43.2673 16.0879 43.2241 16.0762 43.1801 16.0762C43.1362 16.0762 43.093 16.0879 43.0552 16.1103C43.0173 16.1326 42.9861 16.1647 42.9648 16.2031L42.2733 17.4688C42.2507 17.5099 42.217 17.5438 42.1759 17.5665L40.9103 18.258C40.8718 18.2793 40.8398 18.3105 40.8174 18.3484C40.7951 18.3862 40.7833 18.4294 40.7833 18.4733C40.7833 18.5173 40.7951 18.5605 40.8174 18.5983C40.8398 18.6362 40.8718 18.6674 40.9103 18.6887ZM34.4496 23.6176L35.1879 24.0212C35.2119 24.0344 35.2316 24.0542 35.2448 24.0781L35.6484 24.8164C35.6607 24.839 35.6789 24.8579 35.701 24.871C35.7231 24.8842 35.7484 24.8911 35.7741 24.8911C35.7999 24.8911 35.8251 24.8842 35.8472 24.871C35.8693 24.8579 35.8875 24.839 35.8998 24.8164L36.3038 24.0781C36.3169 24.0541 36.3367 24.0343 36.3607 24.0212L37.099 23.6176C37.1216 23.6053 37.1405 23.5871 37.1536 23.565C37.1667 23.5429 37.1737 23.5176 37.1737 23.4919C37.1737 23.4662 37.1667 23.4409 37.1536 23.4188C37.1405 23.3967 37.1216 23.3785 37.099 23.3662L36.3607 22.9626C36.3367 22.9495 36.3169 22.9297 36.3038 22.9057L35.8998 22.1674C35.8874 22.1449 35.8692 22.1261 35.8471 22.113C35.825 22.1 35.7998 22.0931 35.7741 22.0931C35.7484 22.0931 35.7232 22.1 35.7011 22.113C35.679 22.1261 35.6608 22.1449 35.6484 22.1674L35.2448 22.9057C35.2316 22.9296 35.2119 22.9494 35.1879 22.9626L34.4496 23.3662C34.427 23.3785 34.4081 23.3967 34.395 23.4188C34.3819 23.4409 34.3749 23.4662 34.3749 23.4919C34.3749 23.5176 34.3819 23.5429 34.395 23.565C34.4081 23.5871 34.427 23.6053 34.4496 23.6176ZM48.8247 25.5283C48.6735 24.4283 47.6501 23.445 46.3465 24.0475C46.1429 24.1418 45.9397 24.236 45.7137 24.3288C45.6997 24.3392 45.6832 24.3455 45.6659 24.3471C45.2572 24.5305 44.844 24.7036 44.4266 24.8663C43.7727 25.1233 43.013 25.4046 42.0775 25.727C36.7232 27.5716 34.9073 32.8489 37.0965 35.8818C37.11 35.8618 37.127 35.8444 37.1468 35.8305C38.2148 34.5979 39.7761 32.4066 41.934 31.4862C40.5944 32.7216 39.3953 34.1011 38.3583 35.5995C36.9399 37.5663 36.0078 39.8412 35.6382 42.2377C35.1563 40.7641 34.4053 39.3926 33.4234 38.1927C33.4234 38.1895 33.4269 38.1863 33.4283 38.1832L33.4157 38.1761C33.3893 38.1445 33.3601 38.1136 33.3334 38.0819C32.9388 37.6074 32.5115 37.161 32.0548 36.746C31.099 35.866 30.073 35.0655 28.987 34.3525C31.0261 34.8398 32.7308 36.5354 33.8565 37.4611C33.876 37.4703 33.8937 37.483 33.9086 37.4987C35.382 34.4988 32.9906 30.1222 27.9988 29.2999C27.2631 29.1805 26.53 29.0452 25.8001 28.8942C25.408 28.8137 25.018 28.7232 24.6305 28.6228C24.615 28.6241 24.5995 28.6209 24.5858 28.6136C24.3849 28.5676 24.185 28.5168 23.9864 28.4614C22.7472 28.126 21.9934 29.1459 22.0254 30.1373C22.0626 31.4158 22.2736 32.6834 22.6526 33.905C22.9052 34.7209 23.2348 35.5108 23.637 36.2643C25.0137 38.8307 26.8527 40.103 29.3249 40.2141C30.1411 40.2324 30.9483 40.0399 31.6684 39.6552C31.8347 39.5616 32.001 39.4681 32.1476 39.3795C32.3016 39.2786 32.4359 39.183 32.5673 39.0779L32.6493 39.0139C34.0133 40.7798 35.2652 43.1047 35.3637 45.6781C35.3268 47.2102 35.3345 48.7895 35.3566 49.8129C34.5418 49.789 33.733 49.9589 32.9966 50.3086C30.4583 49.2634 28.5346 51.03 27.688 52.1156C26.1897 52.1156 25.1807 52.5687 23.7016 53.7286C23.5917 53.814 23.5112 53.9317 23.4715 54.0652C23.4317 54.1987 23.4347 54.3412 23.4799 54.4729C23.5251 54.6046 23.6104 54.7189 23.7238 54.7997C23.8372 54.8806 23.973 54.924 24.1123 54.9239H47.4367C47.571 54.9234 47.702 54.8825 47.8128 54.8065C47.9236 54.7306 48.009 54.6231 48.0579 54.498C48.1068 54.3729 48.1169 54.236 48.087 54.105C48.0571 53.9741 47.9886 53.8552 47.8902 53.7637C46.2642 52.2425 44.0258 51.7299 43.4405 51.8558C41.4098 49.9486 40.0373 49.3741 38.0036 50.4063C37.4374 50.1524 36.8389 49.9776 36.225 49.887C36.2305 49.866 36.2343 49.8446 36.2363 49.823C36.2138 48.8077 36.2064 47.2215 36.2436 45.6862V45.6767C36.2517 45.3462 36.2612 45.0172 36.2739 44.698C36.3547 42.036 37.1147 39.439 38.4817 37.1534C38.6223 37.2368 38.7591 37.3113 38.8719 37.3718C39.0372 37.4632 39.2027 37.5433 39.3915 37.6256C39.5701 37.6959 39.7712 37.7662 39.9723 37.84C40.8386 38.129 41.7648 38.1895 42.6614 38.0158C45.3684 37.4287 47.1572 35.6783 48.1943 32.5898C48.4969 31.6829 48.7126 30.7493 48.8384 29.8016C49.0277 28.3831 49.0231 26.9455 48.8247 25.5283Z" fill="#6CE6AD"/>
</svg>
