<svg width="71" height="73" viewBox="0 0 71 73" fill="none" xmlns="http://www.w3.org/2000/svg">
<rect y="0.316406" width="70.5134" height="72.2545" rx="13.058" fill="#163024"/>
<path fill-rule="evenodd" clip-rule="evenodd" d="M18.0547 32.5238C17.7765 32.6191 17.5361 32.801 17.3689 33.0429C17.2017 33.2848 17.1164 33.574 17.1257 33.8679C17.1349 34.1618 17.2381 34.445 17.4202 34.676C17.6022 34.9069 17.8535 35.0734 18.1372 35.151L31.9312 38.9203L33.7627 51.937C33.8045 52.2343 33.9425 52.5097 34.1555 52.7211C34.3686 52.9326 34.6449 53.0686 34.9425 53.1083C35.24 53.148 35.5424 53.0892 35.8034 52.9409C36.0644 52.7927 36.2697 52.5631 36.388 52.2872L48.2369 24.624C48.3433 24.3795 48.3762 24.1093 48.3315 23.8465C48.2868 23.5836 48.1664 23.3395 47.9851 23.1439C47.8038 22.9484 47.5694 22.81 47.3107 22.7456C47.0519 22.6813 46.78 22.6937 46.5282 22.7815L18.0547 32.5238Z" fill="#6CE6AD"/>
</svg>
