<svg width="71" height="73" viewBox="0 0 71 73" fill="none" xmlns="http://www.w3.org/2000/svg">
<rect y="0.316406" width="70.5134" height="72.2545" rx="13.058" fill="#163024"/>
<g clip-path="url(#clip0_602_17049)">
<path d="M36.0288 41.8102C36.2505 41.2402 36.108 40.591 35.6647 40.1477L32.3555 36.886L32.403 36.8385C35.158 33.7668 37.1213 30.236 38.2772 26.4993H41.3488C42.2038 26.4993 42.9163 25.7868 42.9163 24.9318V24.9002C42.9163 24.0452 42.2038 23.3327 41.3488 23.3327H31.833V21.7493C31.833 20.8785 31.1205 20.166 30.2497 20.166C29.3788 20.166 28.6663 20.8785 28.6663 21.7493V23.3327H19.1505C18.2955 23.3327 17.583 24.0452 17.583 24.9002C17.583 25.771 18.2955 26.4677 19.1505 26.4677H35.2688C34.208 29.5393 32.5297 32.4368 30.2497 34.9702C28.9672 33.561 27.8905 32.0252 26.988 30.4102C26.7347 29.951 26.2755 29.666 25.753 29.666C24.6605 29.666 23.9638 30.8535 24.5022 31.8035C25.4997 33.5927 26.7188 35.3027 28.1438 36.886L21.2247 43.7102C20.5913 44.3277 20.5913 45.341 21.2247 45.9585C21.8422 46.576 22.8397 46.576 23.473 45.9585L30.2497 39.166L33.448 42.3643C34.2555 43.1718 35.633 42.871 36.0288 41.8102ZM43.708 32.8327C42.758 32.8327 41.903 33.4185 41.5705 34.321L35.7597 49.8377C35.3797 50.8035 36.108 51.8327 37.1372 51.8327C37.7547 51.8327 38.3088 51.4527 38.5305 50.8668L39.9397 47.0827H47.4605L48.8855 50.8668C49.1072 51.4368 49.6613 51.8327 50.2788 51.8327C51.308 51.8327 52.0363 50.8035 51.6722 49.8377L45.8613 34.321C45.513 33.4185 44.658 32.8327 43.708 32.8327ZM41.143 43.916L43.708 37.0602L46.273 43.916H41.143Z" fill="#6CE6AD"/>
</g>
<defs>
<clipPath id="clip0_602_17049">
<rect width="38" height="38" fill="white" transform="translate(16 17)"/>
</clipPath>
</defs>
</svg>
