<svg width="71" height="71" viewBox="0 0 71 71" fill="none" xmlns="http://www.w3.org/2000/svg">
<rect width="71" height="71" rx="13.058" fill="#163024"/>
<path d="M33.5488 37.4657L36.2951 36.3607L37.4488 33.5332L34.7026 34.6382L33.5488 37.4657Z" fill="#6CE6AD"/>
<path d="M35.499 19.249C32.2851 19.249 29.1433 20.2021 26.471 21.9876C23.7987 23.7732 21.7159 26.3111 20.486 29.2804C19.2561 32.2497 18.9343 35.517 19.5613 38.6692C20.1883 41.8214 21.7359 44.7169 24.0085 46.9895C26.2811 49.2621 29.1766 50.8098 32.3288 51.4368C35.481 52.0638 38.7483 51.742 41.7176 50.5121C44.6869 49.2821 47.2248 47.1993 49.0104 44.527C50.796 41.8547 51.749 38.713 51.749 35.499C51.749 33.365 51.3287 31.252 50.5121 29.2804C49.6954 27.3089 48.4985 25.5175 46.9895 24.0085C45.4806 22.4996 43.6892 21.3026 41.7176 20.486C39.7461 19.6693 37.633 19.249 35.499 19.249ZM41.8853 31.3065L39.0415 38.229C38.9598 38.4301 38.8386 38.6129 38.6851 38.7664C38.5316 38.9199 38.3489 39.0411 38.1478 39.1228L31.3065 41.8853C31.0898 41.9717 30.8571 42.0105 30.624 41.999C30.4079 41.996 30.1945 41.9499 29.9964 41.8634C29.7983 41.7769 29.6194 41.6518 29.4703 41.4953H29.389C29.1995 41.2753 29.0725 41.0085 29.021 40.7227C28.9696 40.4369 28.9957 40.1426 29.0965 39.8703L31.9403 32.9478C32.022 32.7467 32.1432 32.5639 32.2967 32.4104C32.4502 32.2569 32.6329 32.1357 32.834 32.054L39.6753 29.2915C39.9795 29.1715 40.3129 29.1461 40.6318 29.2185C40.9507 29.291 41.2403 29.458 41.4628 29.6978C41.6716 29.903 41.8211 30.1608 41.8955 30.444C41.9698 30.7272 41.9663 31.0252 41.8853 31.3065Z" fill="#6CE6AD"/>
</svg>
