<svg width="71" height="73" viewBox="0 0 71 73" fill="none" xmlns="http://www.w3.org/2000/svg">
<rect y="0.316406" width="70.5134" height="72.2545" rx="13.058" fill="#163024"/>
<path d="M44.1726 32.7245V28.7935C44.1726 26.3608 43.2062 24.0278 41.486 22.3076C39.7659 20.5875 37.4328 19.6211 35.0001 19.6211C32.5675 19.6211 30.2344 20.5875 28.5143 22.3076C26.7941 24.0278 25.8277 26.3608 25.8277 28.7935V32.7245C25.1327 32.7245 24.4661 33.0007 23.9746 33.4921C23.4831 33.9836 23.207 34.6502 23.207 35.3452V49.759C23.207 50.4541 23.4831 51.1207 23.9746 51.6121C24.4661 52.1036 25.1327 52.3797 25.8277 52.3797H44.1726C44.8676 52.3797 45.5342 52.1036 46.0257 51.6121C46.5171 51.1207 46.7932 50.4541 46.7932 49.759V35.3452C46.7932 34.6502 46.5171 33.9836 46.0257 33.4921C45.5342 33.0007 44.8676 32.7245 44.1726 32.7245ZM41.5519 32.7245H28.4484V28.7935C28.4484 27.0559 29.1387 25.3894 30.3674 24.1607C31.5961 22.9321 33.2625 22.2418 35.0001 22.2418C36.7378 22.2418 38.4042 22.9321 39.6329 24.1607C40.8616 25.3894 41.5519 27.0559 41.5519 28.7935V32.7245Z" fill="#6CE6AD"/>
</svg>
