<svg width="71" height="73" viewBox="0 0 71 73" fill="none" xmlns="http://www.w3.org/2000/svg">
<rect y="0.316406" width="70.5134" height="72.2545" rx="13.058" fill="#163024"/>
<path d="M46.7476 52.569C46.7148 51.5846 46.7148 50.6002 46.682 49.6158C46.6492 48.6971 46.2554 44.6612 46.4523 43.5455C46.7148 42.0033 46.9773 40.3955 47.0757 38.8205C47.1085 38.3283 47.1085 37.8362 47.0757 37.3112C47.0757 36.5237 47.0101 35.7362 46.9445 34.9158C46.9117 34.358 46.846 33.7674 46.7804 33.2096C46.682 31.9627 45.8945 31.0112 44.582 30.5518C44.1554 30.4205 43.696 30.2893 43.2695 30.2237L42.7117 30.1252C41.6617 29.9612 40.5789 29.7971 39.5289 29.6658C38.1835 29.469 36.8054 29.2721 35.4601 29.0752C34.3773 28.9112 33.7539 28.1893 33.6554 27.1065L33.4257 24.3502L32.9664 19.1658C32.8679 18.1158 32.4742 17.2627 31.7523 16.6393C31.3585 16.3112 30.8335 16.1471 30.3414 16.1799C29.882 16.2127 29.4882 16.4096 29.2257 16.7377L29.0945 16.869C28.6023 17.1971 28.0773 17.8205 28.1101 19.0674L28.2085 23.9565L28.2414 24.9408C28.2085 26.6143 28.2085 28.2549 28.1757 29.8955L28.1429 33.5377C28.1429 33.8002 28.0773 33.9643 28.0117 34.0299L27.8476 33.9971C27.7492 33.9315 27.6835 33.8002 27.6507 33.7018C27.5851 33.5049 27.5523 33.3408 27.4867 33.1112C27.4539 32.8815 27.421 32.7174 27.3554 32.5862C27.1257 31.9955 26.896 31.4049 26.6664 30.8143C26.5351 30.4533 26.2726 30.0596 25.9773 29.7315C25.9117 29.6658 25.8789 29.6002 25.8132 29.5674C25.321 29.1408 24.7304 29.0096 24.0414 29.2065C23.3195 29.4033 22.8929 29.8955 22.8601 30.5846C22.7945 31.569 22.8601 32.3565 23.0242 33.0783C23.057 33.2096 23.0898 33.3737 23.1226 33.4721C23.1226 33.5049 23.1226 33.5049 23.1226 33.5049L23.1554 33.7018C23.3523 34.3908 23.5492 35.0799 23.746 35.769C23.8773 36.2612 24.0414 36.7862 24.1726 37.2783L24.2382 37.6065C24.3367 37.869 24.3695 38.1315 24.4351 38.4268C24.9273 40.4283 25.6492 42.233 26.6007 43.808C27.0929 44.5955 27.6179 45.3502 28.2414 46.0721C28.7664 46.6955 28.7335 48.4018 28.7664 49.5502L28.7992 52.8971C28.832 54.2424 29.7179 55.358 30.9648 55.6862C31.2273 55.7846 31.5226 55.8174 31.8179 55.8174L43.7617 55.6205C44.8117 55.6205 45.6976 55.0627 46.2226 54.2424C46.6164 53.7174 46.7804 53.1596 46.7476 52.569ZM43.0398 53.4549L32.5726 53.5862C31.7851 53.5862 31.1289 52.9627 31.1289 52.1752L31.096 50.0752C31.096 49.2877 31.7195 48.6315 32.507 48.6315L42.9742 48.5002C43.7617 48.5002 44.4179 49.1237 44.4179 49.9112L44.4507 52.044C44.4507 52.7987 43.8273 53.4221 43.0398 53.4549Z" fill="#6CE6AD"/>
</svg>
