<svg width="71" height="73" viewBox="0 0 71 73" fill="none" xmlns="http://www.w3.org/2000/svg">
<rect y="0.316406" width="70.5134" height="72.2545" rx="13.058" fill="#163024"/>
<path d="M35.4997 36.2708C40.1826 36.2708 43.9788 32.4746 43.9788 27.7917C43.9788 23.1088 40.1826 19.3125 35.4997 19.3125C30.8168 19.3125 27.0205 23.1088 27.0205 27.7917C27.0205 32.4746 30.8168 36.2708 35.4997 36.2708Z" fill="#6CE6AD"/>
<path fill-rule="evenodd" clip-rule="evenodd" d="M45.5212 37.8216H46.292C46.8028 37.8224 47.2925 38.0257 47.6537 38.387C48.015 38.7482 48.2183 39.2379 48.2191 39.7487V42.0612C48.2191 42.3679 48.3409 42.662 48.5577 42.8788C48.7746 43.0956 49.0687 43.2175 49.3753 43.2175C49.682 43.2175 49.9761 43.0956 50.1929 42.8788C50.4098 42.662 50.5316 42.3679 50.5316 42.0612V39.7487C50.532 39.1777 50.4171 38.6124 50.1937 38.0869C49.9703 37.5614 49.643 37.0864 49.2316 36.6904C48.8201 36.2945 48.3328 35.9858 47.7991 35.7828C47.2653 35.5798 46.6961 35.4867 46.1255 35.5091H45.5212C44.397 35.5099 43.3191 35.9569 42.5242 36.7518C41.7293 37.5467 41.2824 38.6246 41.2816 39.7487V42.0612C41.2816 42.3679 41.4034 42.662 41.6202 42.8788C41.8371 43.0956 42.1312 43.2175 42.4378 43.2175C42.7445 43.2175 43.0386 43.0956 43.2554 42.8788C43.4723 42.662 43.5941 42.3679 43.5941 42.0612V39.7487C43.5957 39.2381 43.7993 38.7489 44.1603 38.3879C44.5213 38.0268 45.0106 37.8233 45.5212 37.8216ZM38.6654 50.935C38.357 50.3363 38.1968 49.6722 38.1982 48.9987V43.6029C38.1982 42.2863 38.798 41.11 39.7399 40.333V39.7487C39.7399 39.1305 39.8386 38.5215 40.0282 37.945C38.5301 37.7134 37.0163 37.5979 35.5003 37.5996C30.3789 37.5996 25.8449 38.8808 23.0298 40.8001C20.8822 42.2647 19.6982 44.1255 19.6982 46.0788V48.3142C19.6991 49.0091 19.9754 49.6752 20.4668 50.1665C20.9581 50.6578 21.6242 50.9342 22.3191 50.935H38.6654Z" fill="#6CE6AD"/>
<path fill-rule="evenodd" clip-rule="evenodd" d="M52.0726 49V43.6042C52.0726 42.8886 51.7883 42.2024 51.2824 41.6965C50.7764 41.1905 50.0902 40.9062 49.3747 40.9062H42.4372C41.7216 40.9062 41.0354 41.1905 40.5295 41.6965C40.0235 42.2024 39.7393 42.8886 39.7393 43.6042V49C39.7393 50.4908 40.9479 51.6979 42.4372 51.6979H49.3747C50.0902 51.6979 50.7764 51.4137 51.2824 50.9077C51.7883 50.4018 52.0726 49.7155 52.0726 49ZM44.7497 45.5313V47.0729C44.7497 47.3796 44.8715 47.6737 45.0883 47.8905C45.3052 48.1073 45.5993 48.2292 45.9059 48.2292C46.2126 48.2292 46.5067 48.1073 46.7235 47.8905C46.9404 47.6737 47.0622 47.3796 47.0622 47.0729V45.5313C47.0622 45.2246 46.9404 44.9305 46.7235 44.7137C46.5067 44.4968 46.2126 44.375 45.9059 44.375C45.5993 44.375 45.3052 44.4968 45.0883 44.7137C44.8715 44.9305 44.7497 45.2246 44.7497 45.5313Z" fill="#6CE6AD"/>
</svg>
