<svg width="71" height="73" viewBox="0 0 71 73" fill="none" xmlns="http://www.w3.org/2000/svg">
<rect y="0.316406" width="70.5134" height="72.2545" rx="13.058" fill="#163024"/>
<path d="M33.21 26.4685C36.9188 26.4685 38.1329 23.8446 36.7041 21.0668C35.0492 17.8501 40.3046 15.0723 37.694 15.0723C35.2221 15.0723 30.5956 17.7665 29.733 21.12C29.0889 23.6356 30.2954 26.4685 33.21 26.4685ZM43.1128 43.4754L42.2692 42.7477C41.8065 42.3621 41.2233 42.1509 40.6209 42.1509C40.0186 42.1509 39.4354 42.3621 38.9727 42.7477L38.1329 43.4735C36.9829 44.4594 35.5171 44.9995 34.0023 44.9954C32.4884 44.9998 31.0232 44.4604 29.8736 43.4754L29.03 42.7458C28.5675 42.3602 27.9844 42.1492 27.3823 42.1496C26.7803 42.1499 26.1974 42.3616 25.7354 42.7477L24.8918 43.4754C22.6251 45.4286 19.2545 45.4818 16.9042 43.6654V51.1001C16.9042 51.604 17.1044 52.0872 17.4607 52.4436C17.817 52.7999 18.3003 53.0001 18.8042 53.0001H49.2042C49.7081 53.0001 50.1914 52.7999 50.5477 52.4436C50.904 52.0872 51.1042 51.604 51.1042 51.1001V43.6673C48.7539 45.4799 45.3833 45.4324 43.1128 43.4754ZM34.0004 28.3001C19.6098 28.3001 16.9004 34.686 16.9004 37.8001V38.6912L19.112 40.5969C19.5747 40.9825 20.1579 41.1937 20.7602 41.1937C21.3626 41.1937 21.9458 40.9825 22.4085 40.5969L23.2521 39.8692C24.4042 38.8892 25.8673 38.351 27.3798 38.351C28.8923 38.351 30.3555 38.8892 31.5076 39.8692L32.3512 40.5988C33.2708 41.3911 34.7167 41.3968 35.6477 40.5969L36.4875 39.8711C37.6393 38.8899 39.1028 38.3509 40.6158 38.3506C42.1289 38.3502 43.5926 38.8886 44.7449 39.8692L45.5885 40.5969C46.5138 41.3968 47.9635 41.3892 48.885 40.5969L51.1004 38.6912V37.8001C51.1004 34.686 48.391 28.3001 34.0004 28.3001Z" fill="#6CE6AD"/>
</svg>
