<svg width="71" height="73" viewBox="0 0 71 73" fill="none" xmlns="http://www.w3.org/2000/svg">
<rect y="0.316406" width="70.5134" height="72.2545" rx="13.058" fill="#163024"/>
<path d="M40.0406 36.0642C40.0406 38.7942 37.8294 41.0054 35.0994 41.0054C32.3694 41.0054 30.1582 38.7942 30.1582 36.0642C30.1582 33.3466 32.3694 31.123 35.0994 31.123C37.8294 31.123 40.0406 33.3466 40.0406 36.0642Z" fill="#6CE6AD"/>
<path d="M51.59 32.9643C42.4241 23.7984 27.5635 23.7984 18.3976 32.9643L15.6711 35.6907C15.4303 35.9316 15.4298 36.3219 15.6703 36.5633L18.3976 39.3013C27.5635 48.1213 42.4241 48.109 51.59 39.3013L54.327 36.5642C54.5686 36.3227 54.5683 35.9309 54.3262 35.6898L51.59 32.9643ZM35.0988 43.4766C31.01 43.4766 27.6871 40.1537 27.6871 36.0648C27.6871 31.976 31.01 28.6531 35.0988 28.6531C39.1876 28.6531 42.5106 31.976 42.5106 36.0648C42.5106 40.1537 39.1876 43.4766 35.0988 43.4766Z" fill="#6CE6AD"/>
</svg>
