<svg width="71" height="73" viewBox="0 0 71 73" fill="none" xmlns="http://www.w3.org/2000/svg">
<rect y="0.316406" width="70.5134" height="72.2545" rx="13.058" fill="#163024"/>
<g clip-path="url(#clip0_602_17047)">
<path d="M35.0005 17.3965C24.7262 17.3965 16.3965 25.7262 16.3965 36.0005C16.3965 46.2747 24.7262 54.6044 35.0005 54.6044C45.2747 54.6044 53.6044 46.2747 53.6044 36.0005C53.6044 25.7262 45.2747 17.3965 35.0005 17.3965ZM36.7948 50.3751C36.7948 49.1122 36.8049 47.8921 36.7918 46.6713C36.7787 45.4393 35.8014 44.6342 34.6205 44.858C33.8147 45.0106 33.2216 45.7409 33.2097 46.6357C33.1955 47.6914 33.2067 48.7477 33.2067 49.8034V50.3496C27.6314 49.8728 21.492 45.1062 20.6252 37.8227C20.8021 37.8138 20.9761 37.7965 21.15 37.7965C22.1891 37.7936 23.2276 37.8007 24.2666 37.7936C25.4001 37.7865 26.1957 37.03 26.1845 35.9815C26.1744 34.9555 25.3853 34.2156 24.2779 34.2097C23.0744 34.2026 21.8703 34.2079 20.6002 34.2079C21.0277 31.0646 22.2805 28.3725 24.4056 26.0967C26.7776 23.5572 29.7113 22.0984 33.2067 21.5967C33.2067 22.701 33.2055 23.7526 33.2067 24.8047C33.2067 25.022 33.1978 25.2411 33.2115 25.4572C33.278 26.4619 34.0421 27.1898 35.0123 27.1827C36.008 27.1744 36.7734 26.4173 36.79 25.3866C36.8072 24.3315 36.7942 23.2758 36.7942 22.2201V21.6008C39.7024 21.982 42.2317 23.0929 44.4138 24.9615C47.2376 27.381 48.8705 30.4614 49.4078 34.2073H46.562C46.2443 34.2073 45.9255 34.1984 45.6078 34.2085C44.5842 34.243 43.8206 35.0077 43.8159 35.9987C43.8111 36.9819 44.5759 37.7698 45.6019 37.7894C46.6742 37.8114 47.7459 37.7954 48.8188 37.7954H49.3639C48.7879 43.7038 43.8218 49.5765 36.7948 50.3751Z" fill="#6CE6AD"/>
<path d="M35.0008 40.5466C37.5114 40.5466 39.5466 38.5114 39.5466 36.0008C39.5466 33.4903 37.5114 31.4551 35.0008 31.4551C32.4903 31.4551 30.4551 33.4903 30.4551 36.0008C30.4551 38.5114 32.4903 40.5466 35.0008 40.5466Z" fill="#6CE6AD"/>
</g>
<defs>
<clipPath id="clip0_602_17047">
<rect width="38" height="38" fill="white" transform="translate(16 17)"/>
</clipPath>
</defs>
</svg>
