
<svg width="3840" height="1828" viewBox="0 0 3840 1828" fill="none" xmlns="http://www.w3.org/2000/svg">
<g clip-path="url(#clip0_328_33309)">
<path d="M3840 0H0V1650H3840V0Z" fill="#D7EDF1"/>
<path d="M1382.23 854.123L964.629 501.234L951.902 491.108L925.619 470.248L933.2 458.102L1055.51 239.093L1112.45 213.363L1202.01 439.206L1382.23 854.123Z" fill="#ADDBE1" stroke="black" stroke-linejoin="round"/>
<path d="M1172.85 408.662L1237.95 640.426L1254.49 616.107L1336.58 794.252L1200.6 755.381L1069.24 547.604L1087.08 376.32L1119.92 343.756L1172.85 408.662Z" fill="#3B798E"/>
<path opacity="0.2" d="M1172.85 665.519L1249.6 566.694" stroke="black" stroke-width="4" stroke-linecap="round" stroke-linejoin="round" stroke-dasharray="12 12"/>
<path d="M1202.01 439.206L1137.68 371.81L1132.07 446.952L1087.08 376.319L1025.11 439.538L964.629 501.234L960.202 505.772L951.902 491.108L887.328 458.102L1055.51 239.093L1112.42 213.363L1202.01 439.206Z" fill="white" stroke="black" stroke-linejoin="round"/>
<path d="M1202.01 439.206L1137.68 371.81L1132.07 446.953L1087.08 376.32L1025.11 439.538L974.561 418.373L1044.67 320.931L1067.6 335.428L1072.25 260.368L1112.42 213.363L1202.01 439.206Z" fill="#D7EDF1"/>
<path d="M1105.12 251.764L1087.08 376.32L1132.07 446.953L1137.68 371.81L1172.85 408.662L1105.12 251.764Z" fill="#ADDBE1"/>
<path d="M1202.01 439.206L1137.68 371.81L1132.07 446.952L1087.08 376.319L1025.11 439.538L964.629 501.234L960.202 505.772L951.902 491.108L887.328 458.102L1055.51 239.093L1112.42 213.363L1202.01 439.206Z" stroke="black" stroke-linejoin="round"/>
<path d="M168.465 859.905L301.293 642.805L487.407 361.794L647.126 618.098L367.582 859.905H168.465Z" fill="#3B798E" stroke="black" stroke-linejoin="round"/>
<path d="M411.296 498.578L287.045 777.154L168.465 859.905L301.293 642.804L379.092 525.359L411.296 498.578Z" fill="#ADDBE1"/>
<path d="M168.465 859.905L301.293 642.805L487.407 361.794L647.126 618.098L367.582 859.905H168.465Z" stroke="black" stroke-linejoin="round"/>
<path d="M566.34 507.376L504.117 542.956L496.011 547.604L472.771 507.376L417.714 578.756L413.122 514.985L348.52 571.508L487.434 361.794L553.115 465.378L566.34 507.376Z" fill="white" stroke="black" stroke-linejoin="round"/>
<path d="M504.117 432.815V542.956L496.011 547.604L472.771 507.376L417.714 578.756L413.122 514.985L348.52 571.508L487.434 361.794L479.273 440.423L504.117 432.815Z" fill="#D7EDF1"/>
<path d="M566.34 507.376L504.117 542.956L496.011 547.604L472.771 507.376L417.714 578.756L413.122 514.985L348.52 571.508L487.434 361.794L553.115 465.378L566.34 507.376Z" stroke="black" stroke-linejoin="round"/>
<path d="M707.799 1701.41L-277.328 1340.59L706.859 1007.59L1691.96 1343.21L707.799 1701.41Z" fill="#ADDBE1"/>
<path d="M1521.37 1011.55L1495.77 934.716L1470.21 1011.46C1469.1 1014.23 1471.54 1017.27 1477.51 1019.46C1489.42 1023.14 1502.16 1023.14 1514.06 1019.46C1520.01 1017.3 1522.44 1014.34 1521.37 1011.55Z" fill="#131E1F"/>
<path d="M180.39 900.962L154.77 824.132L129.206 900.879C128.099 903.646 130.534 906.689 136.51 908.875C148.415 912.554 161.153 912.554 173.058 908.875C179.034 906.8 181.469 903.757 180.39 900.962Z" fill="#131E1F"/>
<path d="M1559.77 1011.55L1534.17 934.716L1508.58 1011.46C1507.48 1014.23 1509.91 1017.27 1515.91 1019.46C1527.81 1023.14 1540.54 1023.14 1552.43 1019.46C1558.3 1017.3 1560.73 1014.34 1559.77 1011.55Z" fill="#85C400" stroke="black" stroke-linejoin="round"/>
<path d="M707.412 1571.46L-279.873 1212.1L706.499 853.099L1693.78 1212.46L707.412 1571.46Z" fill="white" stroke="black" stroke-linejoin="round"/>
<path d="M707.412 1529.44L-279.873 1170.1L706.499 811.101L1693.78 1170.44L707.412 1529.44Z" fill="#82C8D2" stroke="black" stroke-linejoin="round"/>
<path d="M-279.873 1170.1V1265.53L707.412 1624.86V1529.44L-279.873 1170.1Z" fill="#3B798E" stroke="black" stroke-linejoin="round"/>
<path d="M-70.9066 1094.05L-50.2673 1073.63L78.3827 946.28L78.4933 946.17L240.288 786.007L411.296 640.425L516.346 525.332L591.987 401.994L767.089 116.501L1059.44 555.931L1336.58 794.252L1488.61 993.618L1693.78 1054.62L1578.86 1096.45" fill="#82C8D2"/>
<path d="M-70.9066 1094.05L-50.2673 1073.63L78.3827 946.28L78.4933 946.17L240.288 786.007L411.296 640.425L516.346 525.332L591.987 401.994L767.089 116.501L1059.44 555.931L1336.58 794.252L1488.61 993.618L1693.78 1054.62L1578.86 1096.45" stroke="black" stroke-miterlimit="10"/>
<path d="M206.535 918.89L314.324 1048.23L298.858 984.654L206.535 918.89Z" fill="#ADDBE1"/>
<path d="M1185.6 773.004L1393.79 1022.83L1200.6 1256.73L1185.6 773.004Z" fill="#3B798E"/>
<path d="M1578.86 1096.45L1185.6 773.004L1393.79 1022.83L1578.86 1096.45Z" fill="#3E9FB4"/>
<path d="M445.298 748.63L305.72 1067.9L491.086 1014.87L632.74 955.3L639.85 773.004L553.115 703.007L445.298 748.63Z" fill="#97D1DA"/>
<path d="M632.74 955.327L516.457 1108.9L484.059 1170.1L163.292 1251.61L34.1989 1284.42L-279.873 1170.1L-70.9067 1094.05L-33.9164 1098.34L57.6326 1108.9H162.406L491.086 1014.87L632.74 955.327Z" fill="#C3F53C"/>
<path d="M424.244 1164.29L163.292 1251.61L34.199 1284.42L-279.873 1170.1L-70.9067 1094.05L-33.9164 1098.34L57.6327 1108.9H162.406L424.244 1164.29Z" fill="#C3F53C"/>
<path d="M-70.9067 1094.05L-279.873 1170.1L34.1713 1284.42" fill="#C3F53C"/>
<path d="M-70.9067 1094.05L-279.873 1170.1L34.1713 1284.42" stroke="black" stroke-linecap="round" stroke-linejoin="round"/>
<path d="M515.24 613.146L727.858 563.54L674.959 653.401L445.298 748.63L240.288 786.007L411.296 640.425L515.24 613.146Z" fill="#97D1DA"/>
<path d="M622.558 369.596L541.301 533.632L424.244 637.022L337.951 768.218L262.2 820.176L287.045 894.184L167.054 885.469L78.3826 946.28L78.4933 946.17L240.288 786.007L411.296 640.425L516.346 525.332L591.987 401.994L622.558 369.596Z" fill="#D7EDF1"/>
<path d="M515.239 613.146L445.298 748.63L674.959 653.401L727.858 563.54L515.239 613.146Z" fill="#ADDBE1"/>
<path d="M722.352 343.756L688.598 529.87L727.857 563.54L674.959 653.401L897.371 794.252L639.85 773.004L632.739 955.3L516.457 1108.91L584.323 1484.65L707.412 1529.44L928.634 1448.93L1200.6 1256.73L1185.6 773.004L1578.86 1096.46L1693.78 1054.62L1488.58 993.618L1336.58 794.252L1059.47 555.932L925.591 354.712L722.352 343.756Z" fill="#2F485F"/>
<path d="M965.072 505.053L889.68 352.167L992.6 455.446L1059.47 555.932L965.072 505.053Z" fill="#3B798E"/>
<path d="M1488.58 993.618L1458.37 997.353L1578.86 1096.46L1693.78 1054.62L1488.58 993.618Z" fill="#C3F53C"/>
<path d="M897.371 794.252L940.974 1042.81L873.91 1179.1L632.74 955.3L639.85 773.004L897.371 794.252Z" fill="#131E1F"/>
<path d="M632.74 955.3L873.91 1179.1L1012.71 1154.33L1200.6 1256.73L928.635 1448.93L707.412 1529.44L413.122 1420.98L516.457 1108.91L632.74 955.3Z" fill="#C3F53C"/>
<path d="M928.635 1448.93L725.257 1353.73L584.323 1484.65L707.412 1529.44L928.635 1448.93Z" fill="#C3F53C"/>
<path d="M873.91 1179.1L658.137 1179.65L609.721 1190.3L516.457 1108.91L632.739 955.3L873.91 1179.1Z" fill="#5B9F00"/>
<path d="M873.91 1179.1L745.647 1274.16L658.138 1179.65L873.91 1179.1Z" fill="#85C400"/>
<path d="M925.591 354.712L1059.47 555.932L1336.58 794.252L1488.58 993.618L1693.78 1054.62L1578.86 1096.46" stroke="black" stroke-linejoin="round"/>
<path d="M1693.78 1054.62V1265.86L707.412 1624.86V1529.44L928.635 1448.93L1200.6 1256.73L1393.79 1022.83L1578.86 1096.45L1693.78 1054.62Z" fill="#131E1F"/>
<path d="M745.647 1274.16V1330.87L57.6326 1252.44C60.6464 1249.82 63.8254 1247.4 67.1499 1245.19C153.774 1186.34 424.244 1164.29 424.244 1164.29L516.457 1108.96L557.293 1144.6L609.859 1190.36L658.276 1179.7C658.276 1179.7 745.647 1250.53 745.647 1274.16Z" fill="#3B798E" stroke="black" stroke-linejoin="round"/>
<path d="M479.328 1160.59L386.091 1236.03L67.1499 1245.19C153.774 1186.34 424.244 1164.29 424.244 1164.29L516.457 1108.96L479.328 1160.59Z" fill="#131E1F"/>
<path d="M34.1714 1284.39C40.7561 1263.17 60.7038 1246.46 89.8091 1233.6C224.795 1173.92 556.739 1197.19 665.884 1241.35C729.047 1266.88 748.276 1304.23 745.371 1342.97C741.857 1389.09 706.914 1437.2 677.145 1469.76C665.359 1482.65 646.296 1492.31 622.586 1498.56" fill="white"/>
<path d="M34.1714 1284.39C40.7561 1263.17 60.7038 1246.46 89.8091 1233.6C224.795 1173.92 556.739 1197.19 665.884 1241.35C729.047 1266.88 748.276 1304.23 745.371 1342.97C741.857 1389.09 706.914 1437.2 677.145 1469.76C665.359 1482.65 646.296 1492.31 622.586 1498.56" stroke="black" stroke-linejoin="round"/>
<path d="M1578.86 1096.45L1185.6 773.004L1200.6 1256.73" stroke="black" stroke-linejoin="round"/>
<path d="M-70.9066 1094.05L57.6327 1108.91H162.406L491.086 1014.87L632.74 955.3" stroke="black" stroke-linejoin="round"/>
<path d="M62.5296 1001.59C79.4903 1001.59 93.2396 995.901 93.2396 988.887C93.2396 981.874 79.4903 976.188 62.5296 976.188C45.569 976.188 31.8197 981.874 31.8197 988.887C31.8197 995.901 45.569 1001.59 62.5296 1001.59Z" fill="#3E9FB4"/>
<path d="M34.5587 1047.1C51.5194 1047.1 65.2687 1041.41 65.2687 1034.4C65.2687 1027.39 51.5194 1021.7 34.5587 1021.7C17.598 1021.7 3.84863 1027.39 3.84863 1034.4C3.84863 1041.41 17.598 1047.1 34.5587 1047.1Z" fill="#3E9FB4"/>
<path d="M83.2243 988.361L57.6326 911.559L32.0686 988.278C30.9343 991.045 33.3689 994.116 39.3726 996.302C51.2774 999.981 64.0155 999.981 75.9203 996.302C81.8686 994.144 84.2756 991.183 83.2243 988.361Z" fill="#85C400" stroke="black" stroke-linejoin="round"/>
<path d="M57.4667 1032.1L31.875 955.3L6.31114 1032.05C5.20447 1034.81 7.63909 1037.86 13.6151 1040.04C25.5198 1043.72 38.2579 1043.72 50.1626 1040.04C56.028 1037.88 58.4627 1034.92 57.4667 1032.1Z" fill="#C3F53C" stroke="black" stroke-linejoin="round"/>
<path d="M1034.13 1288.63C1051.09 1288.63 1064.84 1282.94 1064.84 1275.93C1064.84 1268.92 1051.09 1263.23 1034.13 1263.23C1017.17 1263.23 1003.42 1268.92 1003.42 1275.93C1003.42 1282.94 1017.17 1288.63 1034.13 1288.63Z" fill="#85C400"/>
<path d="M969.72 1401.15C986.68 1401.15 1000.43 1395.46 1000.43 1388.45C1000.43 1381.44 986.68 1375.75 969.72 1375.75C952.759 1375.75 939.01 1381.44 939.01 1388.45C939.01 1395.46 952.759 1401.15 969.72 1401.15Z" fill="#85C400"/>
<path d="M902.545 1402.2C919.506 1402.2 933.255 1396.51 933.255 1389.5C933.255 1382.49 919.506 1376.8 902.545 1376.8C885.584 1376.8 871.835 1382.49 871.835 1389.5C871.835 1396.51 885.584 1402.2 902.545 1402.2Z" fill="#85C400"/>
<path d="M1056.45 1274.49L1030.84 1197.69L1005.27 1274.43C1004.16 1277.2 1006.6 1280.24 1012.58 1282.43C1024.48 1286.11 1037.22 1286.11 1049.12 1282.43C1055.1 1280.3 1057.53 1277.31 1056.45 1274.49Z" fill="#C3F53C" stroke="black" stroke-linejoin="round"/>
<path d="M719.087 1163.63C736.048 1163.63 749.797 1157.94 749.797 1150.93C749.797 1143.92 736.048 1138.23 719.087 1138.23C702.127 1138.23 688.377 1143.92 688.377 1150.93C688.377 1157.94 702.127 1163.63 719.087 1163.63Z" fill="#2D7D00"/>
<path d="M741.525 1147.92L715.933 1071.11L690.37 1147.83C689.235 1150.6 691.67 1153.67 697.674 1155.86C709.571 1159.52 722.296 1159.52 734.193 1155.86C740.142 1153.7 742.576 1150.74 741.525 1147.92Z" fill="#85C400" stroke="black" stroke-linejoin="round"/>
<path d="M925.343 1386.79L899.751 1309.99L874.187 1386.73C873.053 1389.5 875.487 1392.54 881.491 1394.73C893.396 1398.41 906.134 1398.41 918.039 1394.73C923.987 1392.57 926.422 1389.61 925.343 1386.79Z" fill="#C3F53C" stroke="black" stroke-linejoin="round"/>
<path d="M992.406 1386.79L966.815 1309.99L941.223 1386.73C940.116 1389.5 942.551 1392.54 948.555 1394.73C960.45 1398.41 973.18 1398.41 985.075 1394.73C991.023 1392.57 993.458 1389.61 992.406 1386.79Z" fill="#C3F53C" stroke="black" stroke-linejoin="round"/>
<path d="M727.858 563.54L515.239 613.146L688.599 529.869L727.858 563.54Z" fill="#131E1F"/>
<path d="M1200.6 1256.73L1393.79 1022.83" stroke="black" stroke-linejoin="round"/>
<path d="M992.6 455.446L889.68 352.166L873.91 449.636C873.91 449.636 787.867 384.149 786.041 382.378C784.215 380.608 733.474 450.438 733.474 450.438L716.044 382.378L641.731 423.048L662.979 348.625L584.434 414.527L767.2 116.501L992.6 455.446Z" fill="white" stroke="black" stroke-linejoin="round"/>
<path d="M992.6 455.446L889.68 352.166L873.91 449.636C873.91 449.636 787.867 384.149 786.041 382.378C784.215 380.608 733.474 450.438 733.474 450.438L716.044 382.378L742.244 255.499L769.662 280.897L767.2 116.501L992.6 455.446Z" fill="#D7EDF1"/>
<path d="M889.68 352.166L767.089 116.501L992.6 455.446L889.68 352.166Z" fill="white"/>
<path d="M992.6 455.446L889.68 352.166L873.91 449.636C873.91 449.636 787.867 384.149 786.041 382.378C784.215 380.608 733.474 450.438 733.474 450.438L716.044 382.378L641.731 423.048L662.979 348.625L584.434 414.527L767.2 116.501L992.6 455.446Z" stroke="black" stroke-linejoin="round"/>
<path d="M1693.78 1153.17C1678.32 1150.02 1662.38 1150.07 1646.94 1153.33C1631.5 1156.59 1616.9 1162.99 1604.03 1172.12C1580.13 1189.39 1553.62 1224.69 1521.5 1204.55C1506.62 1195.25 1494.67 1182.42 1478.98 1174.12C1456.62 1162.56 1431.53 1157.32 1406.41 1158.97C1381.29 1160.62 1357.1 1169.09 1336.44 1183.47C1275.13 1224.97 1249.24 1297.81 1196.61 1347.61C1168.95 1373.7 1134.31 1390.16 1100.33 1406.18C1060.55 1424.89 1020.76 1443.53 981.201 1462.9C972.293 1467.22 963.421 1471.6 954.586 1476.04C939.452 1480.44 924.761 1487.41 910.319 1493.89C881.648 1506.99 852.277 1518.51 822.339 1528.39C792.432 1538.02 731.814 1546.9 707.384 1558.1V1600.57C756.437 1572.9 868.266 1551.3 944.266 1523.1C1018.66 1495.66 1094.5 1468.96 1166.6 1435.81C1200.38 1420.16 1232.13 1400.45 1261.16 1377.13C1290.51 1353.73 1316.36 1324.98 1347.18 1303.62C1382.15 1279.39 1419.11 1282.71 1459.09 1289.32C1496.19 1295.46 1531.77 1297.62 1568.87 1290.26C1590.23 1285.81 1611.16 1279.52 1631.42 1271.45C1647.8 1265.11 1664.79 1258.64 1679.48 1248.84C1684.58 1245.51 1689.37 1241.72 1693.78 1237.53V1153.17Z" fill="#2F485F" stroke="black" stroke-linejoin="round"/>
<path d="M1693.78 1054.62V1265.86L707.412 1624.86V1529.44L928.635 1448.93L1200.6 1256.73L1393.79 1022.83L1578.86 1096.45L1693.78 1054.62Z" stroke="black" stroke-linejoin="round"/>
<path d="M464.028 582.63L411.296 640.425L479.3 622.58L464.028 582.63Z" fill="#82C8D2"/>
<path d="M411.296 640.425L464.029 582.629L516.346 525.332L584.323 414.527" stroke="black" stroke-linejoin="round"/>
<path d="M553.115 703.007L639.85 773.004L897.371 794.252L553.115 703.007Z" fill="#D7EDF1"/>
<path d="M553.115 703.007L694.962 766.834L897.371 794.252L553.115 703.007Z" fill="#82C8D2"/>
<path d="M553.115 703.007L674.959 653.401L897.371 794.252L553.115 703.007Z" fill="#131E1F"/>
<path d="M411.296 640.425L240.288 786.007L78.3826 946.28" stroke="black" stroke-miterlimit="10"/>
<path d="M745.371 1342.97C744.091 1331.38 738.586 1320.68 729.909 1312.9C721.231 1305.12 709.991 1300.81 698.337 1300.8C695.405 1300.81 692.479 1301.08 689.595 1301.6L644.664 1309.9L609.251 1263.7L514.271 1312.61L415.058 1238.52C417.244 1241.93 327.189 1198.27 213.783 1212.18C172.505 1217.25 129.953 1224.44 89.8091 1233.49C224.795 1173.81 556.739 1197.08 665.884 1241.23C729.047 1266.88 748.276 1304.23 745.371 1342.97Z" fill="#3E9FB4"/>
<path d="M647.79 1268.13C606.705 1273.08 565.62 1275.29 524.508 1276.68C483.395 1278.06 442.282 1278.14 401.17 1277.39C360.057 1276.65 318.972 1274.96 277.915 1272.19C236.857 1269.43 195.772 1265.55 154.798 1259.02C195.994 1254.02 237.106 1251.8 278.219 1250.42C319.332 1249.04 360.361 1248.95 401.419 1249.76C442.476 1250.56 483.533 1252.22 524.591 1255.01C565.648 1257.81 606.705 1261.62 647.79 1268.13Z" fill="#D7EDF1"/>
<path d="M128.957 1296.29C158.415 1292.22 188.09 1289.91 217.823 1289.37C247.334 1288.66 276.845 1288.97 306.356 1290.32C335.867 1291.66 365.286 1293.95 394.613 1297.18C424.186 1300.31 453.54 1305.26 482.51 1311.98C453.048 1316.12 423.363 1318.48 393.617 1319.03C364.105 1319.75 334.594 1319.43 305.083 1318.07C275.618 1316.74 246.209 1314.5 216.827 1311.15C187.264 1307.98 157.92 1303.01 128.957 1296.29Z" fill="#D7EDF1"/>
<path d="M89.8091 1233.6C224.795 1173.92 556.739 1197.19 665.884 1241.35C729.047 1266.88 748.276 1304.23 745.371 1342.97" stroke="white" stroke-miterlimit="10"/>
<path d="M745.647 1342.33V1274.16C745.647 1250.53 658.138 1179.65 658.138 1179.65L609.721 1190.3L516.457 1108.91L424.244 1164.24C424.244 1164.24 131.641 1188.11 57.6326 1252.36" stroke="black" stroke-linejoin="round"/>
<path d="M515.239 613.146L673.658 611.541L727.858 563.54L515.239 613.146Z" fill="#82C8D2"/>
<path d="M437.662 896.812L357.705 936.597L206.535 918.89L298.858 984.654L437.662 896.812Z" fill="#C3F53C"/>
<path d="M1119.92 1060.41L935.994 1011.41L786.871 1000.01L914.58 1096.45L1119.92 1060.41Z" fill="#85C400" stroke="black" stroke-linejoin="round"/>
<path d="M1119.92 1060.41L930.46 1168.72L873.91 1179.1L914.58 1096.45L1119.92 1060.41Z" fill="#131E1F"/>
<path d="M900.664 1045.71C917.624 1045.71 931.373 1040.03 931.373 1033.02C931.373 1026 917.624 1020.32 900.664 1020.32C883.703 1020.32 869.954 1026 869.954 1033.02C869.954 1040.03 883.703 1045.71 900.664 1045.71Z" fill="#5B9F00"/>
<path d="M922.963 1031.13L897.371 954.331L871.808 1031.05C870.673 1033.82 873.108 1036.89 879.111 1039.07C891.02 1042.73 903.75 1042.73 915.659 1039.07C921.607 1036.83 924.042 1034.07 922.963 1031.13Z" fill="#5B9F00" stroke="black" stroke-linejoin="round"/>
<path d="M437.662 896.812L314.324 1048.23L298.858 984.654L437.662 896.812Z" fill="#3E9FB4"/>
<path d="M1207.93 993.618L1312.95 925.835L1407.07 974.473L1207.93 993.618Z" fill="#2F485F"/>
<path d="M1407.07 974.473L1383.2 1007.37L1207.93 993.618L1407.07 974.473Z" fill="#85C400" stroke="black" stroke-linejoin="round"/>
<path d="M437.662 896.812L298.858 984.654L357.705 936.597L437.662 896.812Z" fill="#D7F87E"/>
<path d="M622.558 1498.56C602.334 1519.76 528.215 1513.97 452.602 1502.35C383.048 1491.65 117.116 1375.75 79.3233 1353.73C76.1388 1351.88 73.088 1349.81 70.1934 1347.53C40.2857 1323.9 34.2267 1284.42 34.2267 1284.42" fill="#D7EDF1"/>
<path d="M622.558 1498.56C602.334 1519.76 528.215 1513.97 452.602 1502.35C383.048 1491.65 117.116 1375.75 79.3233 1353.73C76.1388 1351.88 73.088 1349.81 70.1934 1347.53C40.2857 1323.9 34.2267 1284.42 34.2267 1284.42" stroke="black" stroke-linejoin="round"/>
<path d="M447.843 1434.98C435.421 1433.1 422.943 1431.25 410.576 1429.09C390.29 1425.42 369.762 1423.22 349.156 1422.53C328.821 1421.98 308.68 1420.93 289.452 1413.6C253.485 1399.76 223.937 1375.5 185.674 1367.01C148.628 1358.71 108.567 1361.47 72.711 1348.47L70.1934 1347.53C40.2857 1323.9 34.2267 1284.42 34.2267 1284.42L447.843 1434.98Z" fill="#97D1DA"/>
<path d="M622.558 1498.56C602.334 1519.76 528.215 1513.97 452.602 1502.35C383.048 1491.65 117.116 1375.75 79.3233 1353.73C76.1388 1351.88 73.088 1349.81 70.1934 1347.53C40.2857 1323.9 34.2267 1284.42 34.2267 1284.42L622.558 1498.56Z" stroke="black" stroke-linejoin="round"/>
<path d="M806.32 668.23L888.297 488.84L1026.82 375.24L1137.08 588.329L1237.95 709.453" fill="#2F485F"/>
<path d="M806.32 668.23L888.297 488.84L1026.82 375.24L1137.08 588.329L1237.95 709.454" stroke="black" stroke-linejoin="round"/>
<path d="M1026.82 375.24L1092.95 606.478L1223.59 692.189L1137.08 588.329L1026.82 375.24Z" fill="#3E9FB4"/>
<path d="M1026.82 375.24L1001.15 501.815L970.799 605.454L996.916 800.615L806.32 668.23L888.297 488.84L1026.82 375.24Z" fill="#3B798E"/>
<path d="M806.32 668.23L888.297 488.84L1026.82 375.24L1137.08 588.329L1237.95 709.454" stroke="black" stroke-linejoin="round"/>
<g opacity="0.2">
<path opacity="0.2" d="M832.825 887.793L1091.15 940.719L1147.81 1000.01L1269.38 879.521" stroke="black" stroke-width="4" stroke-linecap="round" stroke-linejoin="round" stroke-dasharray="12 12"/>
<path opacity="0.2" d="M1269.38 896.812C1279.65 896.812 1287.97 888.488 1287.97 878.22C1287.97 867.952 1279.65 859.628 1269.38 859.628C1259.11 859.628 1250.79 867.952 1250.79 878.22C1250.79 888.488 1259.11 896.812 1269.38 896.812Z" fill="black" stroke="black" stroke-width="4" stroke-linecap="round" stroke-linejoin="round"/>
<path opacity="0.2" d="M-76.606 1216.47L287.045 1139.84L409.082 1039.1L478.747 961.856" stroke="black" stroke-width="4" stroke-linecap="round" stroke-linejoin="round" stroke-dasharray="11.75 11.75"/>
<path opacity="0.2" d="M489.62 949.794L500.742 937.482L514.908 946.142" stroke="black" stroke-width="4" stroke-linecap="round" stroke-linejoin="round"/>
<path opacity="0.2" d="M537.483 959.975L616.583 1008.39" stroke="black" stroke-width="4" stroke-linecap="round" stroke-linejoin="round" stroke-dasharray="9.58 9.58"/>
<path opacity="0.2" d="M627.87 1015.31L642.036 1024L655.509 1014.28" stroke="black" stroke-width="4" stroke-linecap="round" stroke-linejoin="round"/>
<path opacity="0.2" d="M678.639 997.685L805.85 906.274" stroke="black" stroke-width="4" stroke-linecap="round" stroke-linejoin="round" stroke-dasharray="10.29 10.29"/>
<path opacity="0.2" d="M817.415 897.974L830.916 888.291" stroke="black" stroke-width="4" stroke-linecap="round" stroke-linejoin="round"/>
<path opacity="0.2" d="M778.737 1505.53V1398.6L932.37 1242.67" stroke="black" stroke-width="4" stroke-linecap="round" stroke-linejoin="round" stroke-dasharray="12 12"/>
<path opacity="0.2" d="M932.37 1260.27C942.638 1260.27 950.962 1251.95 950.962 1241.68C950.962 1231.41 942.638 1223.09 932.37 1223.09C922.101 1223.09 913.778 1231.41 913.778 1241.68C913.778 1251.95 922.101 1260.27 932.37 1260.27Z" fill="black" stroke="black" stroke-width="4" stroke-linecap="round" stroke-linejoin="round"/>
<path opacity="0.2" d="M832.825 905.057C843.093 905.057 851.417 896.733 851.417 886.465C851.417 876.197 843.093 867.873 832.825 867.873C822.557 867.873 814.233 876.197 814.233 886.465C814.233 896.733 822.557 905.057 832.825 905.057Z" fill="black" stroke="black" stroke-width="4" stroke-linecap="round" stroke-linejoin="round"/>
<path opacity="0.2" d="M287.045 1158.43C297.313 1158.43 305.637 1150.1 305.637 1139.84C305.637 1129.57 297.313 1121.24 287.045 1121.24C276.777 1121.24 268.453 1129.57 268.453 1139.84C268.453 1150.1 276.777 1158.43 287.045 1158.43Z" fill="black" stroke="black" stroke-width="4" stroke-linecap="round" stroke-linejoin="round"/>
<path opacity="0.2" d="M497.864 937.482L401.308 829.693L369.906 766.834L337.951 702.896" stroke="black" stroke-width="4" stroke-linecap="round" stroke-linejoin="round" stroke-dasharray="12 12"/>
<path opacity="0.2" d="M769.579 116.501L930.156 434.308L1010 481.618" stroke="black" stroke-width="4" stroke-linecap="round" stroke-linejoin="round" stroke-dasharray="12 12"/>
<path opacity="0.2" d="M497.864 956.074C508.133 956.074 516.457 947.75 516.457 937.482C516.457 927.214 508.133 918.89 497.864 918.89C487.596 918.89 479.272 927.214 479.272 937.482C479.272 947.75 487.596 956.074 497.864 956.074Z" fill="black" stroke="black" stroke-width="4" stroke-linecap="round" stroke-linejoin="round"/>
<path opacity="0.2" d="M516.346 525.359L658.138 474.37L767.089 116.501" stroke="black" stroke-width="4" stroke-linecap="round" stroke-linejoin="round" stroke-dasharray="12 12"/>
<path opacity="0.2" d="M1101.99 693.822L1254.49 723.674" stroke="black" stroke-width="4" stroke-linecap="round" stroke-linejoin="round" stroke-dasharray="12 12"/>
</g>
<path d="M-76.6337 1191.79L287.045 1115.13L476.893 935.352" stroke="#FF5A87" stroke-width="4" stroke-linecap="round" stroke-linejoin="round" stroke-dasharray="11.74 11.74"/>
<path d="M488.679 924.202L500.742 912.776L514.88 921.463" stroke="#FF5A87" stroke-width="4" stroke-linecap="round" stroke-linejoin="round"/>
<path d="M537.373 935.297L616.029 983.658" stroke="#FF5A87" stroke-width="4" stroke-linecap="round" stroke-linejoin="round" stroke-dasharray="9.54 9.54"/>
<path d="M627.289 990.575L641.427 999.262L654.928 989.606" stroke="#FF5A87" stroke-width="4" stroke-linecap="round" stroke-linejoin="round"/>
<path d="M678.141 972.979L805.794 881.568" stroke="#FF5A87" stroke-width="4" stroke-linecap="round" stroke-linejoin="round" stroke-dasharray="10.32 10.32"/>
<path d="M817.415 873.268L830.916 863.585" stroke="#FF5A87" stroke-width="4" stroke-linecap="round" stroke-linejoin="round"/>
<path d="M287.045 1133.75C297.313 1133.75 305.637 1125.43 305.637 1115.16C305.637 1104.89 297.313 1096.57 287.045 1096.57C276.777 1096.57 268.453 1104.89 268.453 1115.16C268.453 1125.43 276.777 1133.75 287.045 1133.75Z" fill="white" stroke="#FF5A87" stroke-width="4" stroke-linecap="round" stroke-linejoin="round"/>
<path d="M497.865 912.776L328.379 664.136L408.502 641.532" stroke="#FF5A87" stroke-width="4" stroke-linecap="round" stroke-linejoin="round" stroke-dasharray="12 12"/>
<path d="M769.579 117.027L925.591 391.259L985.711 456.94L1018.27 469.971" stroke="#FF5A87" stroke-width="4" stroke-linecap="round" stroke-linejoin="round" stroke-dasharray="12 12"/>
<path d="M497.864 931.368C508.133 931.368 516.457 923.044 516.457 912.776C516.457 902.508 508.133 894.184 497.864 894.184C487.596 894.184 479.272 902.508 479.272 912.776C479.272 923.044 487.596 931.368 497.864 931.368Z" fill="white" stroke="#FF5A87" stroke-width="4" stroke-linecap="round" stroke-linejoin="round"/>
<path d="M767.089 117.027L646.933 439.98L497.865 510.53L502.347 529.869" stroke="#FF5A87" stroke-width="4" stroke-linecap="round" stroke-linejoin="round" stroke-dasharray="12 12"/>
<path d="M769.579 135.62C779.847 135.62 788.171 127.296 788.171 117.028C788.171 106.759 779.847 98.4355 769.579 98.4355C759.311 98.4355 750.987 106.759 750.987 117.028C750.987 127.296 759.311 135.62 769.579 135.62Z" fill="white" stroke="#FF5A87" stroke-width="4" stroke-linecap="round" stroke-linejoin="round"/>
<path d="M832.825 861.786L1147.81 918.89L1269.38 853.514" stroke="#FF5A87" stroke-width="4" stroke-linecap="round" stroke-linejoin="round" stroke-dasharray="12 12"/>
<path d="M1269.38 872.106C1279.65 872.106 1287.97 863.782 1287.97 853.514C1287.97 843.246 1279.65 834.922 1269.38 834.922C1259.11 834.922 1250.79 843.246 1250.79 853.514C1250.79 863.782 1259.11 872.106 1269.38 872.106Z" fill="white" stroke="#FF5A87" stroke-width="4" stroke-linecap="round" stroke-linejoin="round"/>
<path d="M832.825 880.378C843.093 880.378 851.417 872.054 851.417 861.786C851.417 851.518 843.093 843.194 832.825 843.194C822.557 843.194 814.233 851.518 814.233 861.786C814.233 872.054 822.557 880.378 832.825 880.378Z" fill="white" stroke="#FF5A87" stroke-width="4" stroke-linecap="round" stroke-linejoin="round"/>
<path d="M1067.6 641.062L1254.49 698.996L1280.08 731.034" stroke="#FF5A87" stroke-width="4" stroke-linecap="round" stroke-linejoin="round" stroke-dasharray="12 12"/>
<path d="M1074.08 488.093L1081.8 529.869L1067.6 514.293L1033.57 476.943L1026.85 497.14L1010 547.604L1001.15 497.223L997.608 476.943L955.001 516.506L961.669 455.474L923.184 460.205L1026.85 375.24L1092.17 501.539L1074.08 488.093Z" fill="#D7EDF1" stroke="black" stroke-linejoin="round"/>
<path d="M1026.85 375.24L998.106 420.641L974.561 418.345L1026.85 375.24Z" fill="white"/>
<path d="M1074.08 488.093L1081.8 529.869L1067.6 514.293L1033.57 476.943L1026.85 497.14V375.24L1092.17 501.539L1074.08 488.093Z" fill="white"/>
<path d="M1067.6 514.293L1033.57 476.943L1010 547.604L1001.15 497.223L1026.85 375.24L1067.6 514.293Z" fill="#ADDBE1"/>
<path d="M1074.08 488.093L1081.8 529.869L1067.6 514.293L1033.57 476.943L1010 547.604L1001.15 497.223L997.608 476.943L955.001 516.506L961.669 455.474L923.184 460.205L1026.85 375.24L1092.17 501.539L1074.08 488.093Z" stroke="black" stroke-linejoin="round"/>
<g opacity="0.2">
<path opacity="0.2" d="M1060.74 651.99L1057.59 635.694" stroke="black" stroke-width="4" stroke-linecap="round" stroke-linejoin="round"/>
<path opacity="0.2" d="M1052.08 607.115L1043.81 564.287" stroke="black" stroke-width="4" stroke-linecap="round" stroke-linejoin="round" stroke-dasharray="10.51 10.51"/>
<path opacity="0.2" d="M1041.04 550.011L1037.92 533.715" stroke="black" stroke-width="4" stroke-linecap="round" stroke-linejoin="round"/>
</g>
<path opacity="0.2" d="M1034.38 523.285C1044.64 523.285 1052.97 514.961 1052.97 504.693C1052.97 494.425 1044.64 486.101 1034.38 486.101C1024.11 486.101 1015.78 494.425 1015.78 504.693C1015.78 514.961 1024.11 523.285 1034.38 523.285Z" fill="black" stroke="black" stroke-width="4" stroke-linecap="round" stroke-linejoin="round"/>
<path opacity="0.2" d="M1067.6 707.268C1077.87 707.268 1086.2 698.944 1086.2 688.676C1086.2 678.408 1077.87 670.084 1067.6 670.084C1057.34 670.084 1049.01 678.408 1049.01 688.676C1049.01 698.944 1057.34 707.268 1067.6 707.268Z" fill="black" stroke="black" stroke-width="4" stroke-linecap="round" stroke-linejoin="round"/>
<path d="M1067.6 641.062L1063.98 624.849" stroke="#FF5A87" stroke-width="4" stroke-linecap="round" stroke-linejoin="round"/>
<path d="M1058.25 599.423L1038.22 510.42" stroke="#FF5A87" stroke-width="4" stroke-linecap="round" stroke-linejoin="round" stroke-dasharray="9.42 9.42"/>
<path d="M1035.34 497.693L1031.72 481.508" stroke="#FF5A87" stroke-width="4" stroke-linecap="round" stroke-linejoin="round"/>
<path d="M1067.6 659.654C1077.87 659.654 1086.2 651.33 1086.2 641.062C1086.2 630.794 1077.87 622.47 1067.6 622.47C1057.34 622.47 1049.01 630.794 1049.01 641.062C1049.01 651.33 1057.34 659.654 1067.6 659.654Z" fill="white" stroke="#FF5A87" stroke-width="4" stroke-linecap="round" stroke-linejoin="round"/>
<path d="M1034.38 498.578C1044.64 498.578 1052.97 490.255 1052.97 479.986C1052.97 469.718 1044.64 461.395 1034.38 461.395C1024.11 461.395 1015.78 469.718 1015.78 479.986C1015.78 490.255 1024.11 498.578 1034.38 498.578Z" fill="white" stroke="#FF5A87" stroke-width="4" stroke-linecap="round" stroke-linejoin="round"/>
<path d="M715.933 382.378L688.599 529.869L727.858 563.54L674.959 653.401" stroke="black" stroke-linejoin="round"/>
<path d="M553.115 703.007L639.85 773.004" stroke="black" stroke-linejoin="round"/>
<path d="M437.662 896.812L357.705 936.597L206.535 918.89L298.858 984.654L437.662 896.812Z" stroke="black" stroke-linejoin="round"/>
<path d="M995.754 787.169L970.799 605.455L1001.15 501.815" stroke="black" stroke-linejoin="round"/>
<path d="M1169.97 606.257L1266.83 481.536L1221.29 470.109" stroke="#FF5A87" stroke-width="4" stroke-linecap="round" stroke-linejoin="round" stroke-dasharray="12 12"/>
<path d="M1005.05 293.485L1037.92 240.669" stroke="#FF5A87" stroke-width="4" stroke-linecap="round" stroke-linejoin="round" stroke-dasharray="12 12"/>
<path d="M1044.67 259.262C1054.94 259.262 1063.26 250.938 1063.26 240.67C1063.26 230.402 1054.94 222.078 1044.67 222.078C1034.4 222.078 1026.08 230.402 1026.08 240.67C1026.08 250.938 1034.4 259.262 1044.67 259.262Z" fill="white" stroke="#FF5A87" stroke-width="4" stroke-linecap="round" stroke-linejoin="round"/>
<path d="M769.579 1489.49L766.038 1374.42L923.212 1226.63" stroke="#FF5A87" stroke-width="4" stroke-linecap="round" stroke-linejoin="round" stroke-dasharray="12 12"/>
<path d="M923.212 1244.2C933.48 1244.2 941.804 1235.87 941.804 1225.6C941.804 1215.34 933.48 1207.01 923.212 1207.01C912.944 1207.01 904.62 1215.34 904.62 1225.6C904.62 1235.87 912.944 1244.2 923.212 1244.2Z" fill="white" stroke="#FF5A87" stroke-width="4" stroke-linecap="round" stroke-linejoin="round"/>
<path d="M1944.15 770.355L1979.33 885.126L2003.85 801.912L1994.2 771.561L1979.53 754.275H2016.11L2008.67 770.355L2045.25 886.734L2080.23 771.159L2065.55 754.275H2096.91L2090.28 769.149L2050.28 900H2034.6L2008.47 816.786L1983.75 900H1968.07L1928.67 771.561L1914 754.275H1951.59L1944.15 770.355ZM2116.32 882.714V766.737L2100.24 749.25H2130.39V816.384C2134.67 807.808 2140.17 801.242 2146.87 796.686C2153.57 792.13 2161.14 789.852 2169.58 789.852C2180.44 789.852 2188.61 793.537 2194.1 800.907C2199.73 808.143 2202.55 818.796 2202.55 832.866V886.332L2214.61 900H2180.44L2188.48 882.915V832.866C2188.48 811.158 2180.9 800.304 2165.76 800.304C2157.72 800.304 2150.49 803.185 2144.05 808.947C2137.62 814.575 2133.07 822.146 2130.39 831.66V886.131L2142.65 900H2108.08L2116.32 882.714ZM2257.25 902.412C2246.53 902.412 2238.02 899.866 2231.72 894.774C2225.55 889.548 2222.47 882.513 2222.47 873.669C2222.47 860.805 2229.84 851.693 2244.58 846.333C2255.17 842.447 2270.04 840.504 2289.2 840.504V831.057C2289.2 808.277 2280.09 796.887 2261.87 796.887C2254.77 796.887 2249.27 798.629 2245.39 802.113C2241.5 805.597 2239.42 810.689 2239.16 817.389C2238.89 824.357 2236.61 827.841 2232.32 827.841C2230.18 827.841 2228.5 826.97 2227.3 825.228C2226.09 823.352 2225.49 820.873 2225.49 817.791C2225.49 812.565 2227.1 807.808 2230.31 803.52C2233.53 799.232 2238.02 795.882 2243.78 793.47C2249.54 791.058 2255.97 789.852 2263.07 789.852C2275.67 789.852 2285.52 793.537 2292.62 800.907C2299.72 808.143 2303.27 818.26 2303.27 831.258V879.498C2303.27 886.332 2305.49 889.749 2309.91 889.749C2311.65 889.749 2313.06 889.414 2314.13 888.744L2315.13 889.548C2314.6 892.764 2313.26 895.31 2311.11 897.186C2309.1 899.062 2306.49 900 2303.27 900C2299.52 900 2296.37 898.727 2293.83 896.181C2291.42 893.501 2290.08 890.084 2289.81 885.93C2286.99 891.29 2282.77 895.377 2277.14 898.191C2271.65 901.005 2265.02 902.412 2257.25 902.412ZM2261.87 893.97C2267.9 893.97 2273.26 892.563 2277.95 889.749C2282.77 886.935 2286.52 882.982 2289.2 877.89V845.529C2281.83 845.529 2274.46 846.199 2267.09 847.539C2259.72 848.745 2253.9 850.286 2249.61 852.162C2241.3 855.78 2237.15 862.212 2237.15 871.458C2237.15 878.158 2239.42 883.585 2243.98 887.739C2248.54 891.893 2254.5 893.97 2261.87 893.97ZM2336.53 793.47L2341.96 759.099H2350.6V793.47H2376.73V802.917H2350.6V871.86C2350.6 879.23 2351.88 884.724 2354.42 888.342C2357.1 891.96 2361.12 893.769 2366.48 893.769C2371.84 893.769 2376.53 891.759 2380.55 887.739L2382.16 888.945C2380.28 893.367 2377.47 896.717 2373.72 898.995C2369.97 901.273 2365.54 902.412 2360.45 902.412C2352.81 902.412 2346.92 900.067 2342.76 895.377C2338.61 890.687 2336.53 884.121 2336.53 875.679V802.917H2315.43V793.47H2336.53ZM2393.28 790.656C2397.03 787.708 2399.91 784.023 2401.92 779.601C2404.06 775.179 2405 770.824 2404.73 766.536H2402.52C2399.71 766.536 2397.3 765.598 2395.29 763.722C2393.41 761.846 2392.47 759.568 2392.47 756.888C2392.47 754.074 2393.41 751.729 2395.29 749.853C2397.3 747.977 2399.71 747.039 2402.52 747.039C2406.01 747.039 2408.89 748.58 2411.16 751.662C2413.44 754.61 2414.58 758.429 2414.58 763.119C2414.58 768.747 2412.77 774.308 2409.15 779.802C2405.67 785.296 2401.05 789.718 2395.29 793.068L2393.28 790.656ZM2432.72 874.071L2447.4 882.111C2454.9 886.265 2461.53 889.28 2467.3 891.156C2473.19 892.898 2479.02 893.769 2484.78 893.769C2492.02 893.769 2497.38 892.429 2500.86 889.749C2504.48 887.069 2506.29 882.982 2506.29 877.488C2506.29 873.468 2505.22 870.051 2503.07 867.237C2501.06 864.423 2497.58 861.81 2492.62 859.398C2487.8 856.986 2480.96 854.44 2472.12 851.76C2458.32 847.606 2448.2 842.715 2441.77 837.087C2435.47 831.325 2432.32 824.29 2432.32 815.982C2432.32 807.942 2434.93 801.577 2440.16 796.887C2445.52 792.197 2452.76 789.852 2461.87 789.852C2472.86 789.852 2483.51 793.47 2493.83 800.706L2509.51 792.465V821.409L2495.64 811.158C2484.38 802.582 2473.53 798.294 2463.07 798.294C2456.91 798.294 2452.22 799.634 2449 802.314C2445.92 804.86 2444.38 808.679 2444.38 813.771C2444.38 819.533 2446.73 824.156 2451.42 827.64C2456.11 831.124 2464.55 834.541 2476.74 837.891C2491.35 841.911 2501.93 846.802 2508.5 852.564C2515.2 858.326 2518.55 865.629 2518.55 874.473C2518.55 883.451 2515.6 890.352 2509.71 895.176C2503.81 900 2495.5 902.412 2484.78 902.412C2478.62 902.412 2472.72 901.608 2467.09 900C2461.6 898.258 2455.91 895.578 2450.01 891.96L2432.72 902.01V874.071ZM2580.15 793.47L2585.58 759.099H2594.22V793.47H2620.35V802.917H2594.22V871.86C2594.22 879.23 2595.49 884.724 2598.04 888.342C2600.72 891.96 2604.74 893.769 2610.1 893.769C2615.46 893.769 2620.15 891.759 2624.17 887.739L2625.78 888.945C2623.9 893.367 2621.09 896.717 2617.34 898.995C2613.58 901.273 2609.16 902.412 2604.07 902.412C2596.43 902.412 2590.54 900.067 2586.38 895.377C2582.23 890.687 2580.15 884.121 2580.15 875.679V802.917H2559.05V793.47H2580.15ZM2644.13 882.714V766.737L2628.05 749.25H2658.2V816.384C2662.49 807.808 2667.98 801.242 2674.68 796.686C2681.38 792.13 2688.95 789.852 2697.39 789.852C2708.25 789.852 2716.42 793.537 2721.92 800.907C2727.54 808.143 2730.36 818.796 2730.36 832.866V886.332L2742.42 900H2708.25L2716.29 882.915V832.866C2716.29 811.158 2708.72 800.304 2693.58 800.304C2685.54 800.304 2678.3 803.185 2671.87 808.947C2665.44 814.575 2660.88 822.146 2658.2 831.66V886.131L2670.46 900H2635.89L2644.13 882.714ZM2765.16 846.333C2765.43 861.475 2769.11 873.066 2776.21 881.106C2783.45 889.012 2793.63 892.965 2806.77 892.965C2814.14 892.965 2820.64 891.558 2826.26 888.744C2831.89 885.93 2838.06 880.972 2844.76 873.87L2846.56 874.875C2836.51 893.233 2821.1 902.412 2800.33 902.412C2790.15 902.412 2781.31 900.201 2773.8 895.779C2766.3 891.357 2760.47 885.059 2756.32 876.885C2752.3 868.577 2750.29 858.862 2750.29 847.74C2750.29 836.35 2752.43 826.3 2756.72 817.59C2761.01 808.88 2766.97 802.113 2774.61 797.289C2782.38 792.331 2791.29 789.852 2801.34 789.852C2815.14 789.852 2825.66 794.676 2832.9 804.324C2840.13 813.972 2843.68 827.975 2843.55 846.333H2765.16ZM2800.13 798.294C2789.95 798.294 2781.78 801.845 2775.61 808.947C2769.58 816.049 2766.1 826.099 2765.16 839.097H2829.88C2829.88 825.697 2827.34 815.58 2822.24 808.746C2817.29 801.778 2809.92 798.294 2800.13 798.294ZM2905.01 882.513V768.345L2892.55 754.275H2917.27L2997.67 866.031V768.345L2985.21 754.275H3014.76L3006.52 771.762V902.412L2913.86 774.576V885.93L2926.32 900H2896.77L2905.01 882.513ZM3043.06 882.513V768.345L3030.6 754.275H3125.67V783.018L3108.38 763.119H3057.53V823.218H3096.12L3108.79 812.163V843.519L3095.12 832.263H3057.53V885.93L3069.79 900H3034.82L3043.06 882.513ZM3183.37 882.513V763.119H3155.43L3137.34 784.626V754.275H3243.47V784.626L3225.38 763.119H3197.85V885.93L3210.11 900H3175.13L3183.37 882.513ZM1934.3 1174.71V1058.74L1918.22 1041.25H1948.37V1178.13L1960.63 1192H1926.06L1934.3 1174.71ZM2005.35 1194.41C1994.63 1194.41 1986.12 1191.87 1979.82 1186.77C1973.66 1181.55 1970.58 1174.51 1970.58 1165.67C1970.58 1152.8 1977.95 1143.69 1992.69 1138.33C2003.27 1134.45 2018.15 1132.5 2037.31 1132.5V1123.06C2037.31 1100.28 2028.2 1088.89 2009.97 1088.89C2002.87 1088.89 1997.38 1090.63 1993.49 1094.11C1989.61 1097.6 1987.53 1102.69 1987.26 1109.39C1986.99 1116.36 1984.72 1119.84 1980.43 1119.84C1978.28 1119.84 1976.61 1118.97 1975.4 1117.23C1974.2 1115.35 1973.59 1112.87 1973.59 1109.79C1973.59 1104.56 1975.2 1099.81 1978.42 1095.52C1981.63 1091.23 1986.12 1087.88 1991.88 1085.47C1997.65 1083.06 2004.08 1081.85 2011.18 1081.85C2023.78 1081.85 2033.63 1085.54 2040.73 1092.91C2047.83 1100.14 2051.38 1110.26 2051.38 1123.26V1171.5C2051.38 1178.33 2053.59 1181.75 2058.01 1181.75C2059.76 1181.75 2061.16 1181.41 2062.23 1180.74L2063.24 1181.55C2062.7 1184.76 2061.36 1187.31 2059.22 1189.19C2057.21 1191.06 2054.6 1192 2051.38 1192C2047.63 1192 2044.48 1190.73 2041.93 1188.18C2039.52 1185.5 2038.18 1182.08 2037.91 1177.93C2035.1 1183.29 2030.88 1187.38 2025.25 1190.19C2019.76 1193 2013.12 1194.41 2005.35 1194.41ZM2009.97 1185.97C2016 1185.97 2021.36 1184.56 2026.05 1181.75C2030.88 1178.93 2034.63 1174.98 2037.31 1169.89V1137.53C2029.94 1137.53 2022.57 1138.2 2015.2 1139.54C2007.83 1140.74 2002 1142.29 1997.71 1144.16C1989.41 1147.78 1985.25 1154.21 1985.25 1163.46C1985.25 1170.16 1987.53 1175.58 1992.09 1179.74C1996.64 1183.89 2002.6 1185.97 2009.97 1185.97ZM2083.79 1174.71V1102.96L2067.71 1085.47H2096.45V1111.4C2100.74 1101.88 2106.37 1094.58 2113.33 1089.49C2120.3 1084.4 2128.28 1081.85 2137.25 1081.85C2147.97 1081.85 2156.08 1085.54 2161.57 1092.91C2167.2 1100.14 2170.02 1110.8 2170.02 1124.87V1178.33L2182.08 1192H2147.91L2155.95 1174.91V1124.87C2155.95 1103.16 2148.38 1092.3 2133.23 1092.3C2125.19 1092.3 2117.96 1095.18 2111.53 1100.95C2105.09 1106.57 2100.54 1114.15 2097.86 1123.66V1178.13L2110.12 1192H2075.55L2083.79 1174.71ZM2233.56 1194.41C2224.85 1194.41 2217.15 1192.13 2210.45 1187.58C2203.88 1182.89 2198.79 1176.25 2195.17 1167.68C2191.69 1159.1 2189.94 1149.19 2189.94 1137.93C2189.94 1126.54 2191.69 1116.62 2195.17 1108.18C2198.79 1099.74 2203.88 1093.24 2210.45 1088.69C2217.01 1084.13 2224.65 1081.85 2233.36 1081.85C2241.53 1081.85 2248.77 1083.79 2255.07 1087.68C2261.5 1091.57 2266.66 1097.06 2270.54 1104.16V1058.74L2254.46 1041.25H2284.61V1178.13L2296.88 1192H2271.95V1169.29C2268.33 1177.19 2263.17 1183.36 2256.47 1187.78C2249.77 1192.2 2242.14 1194.41 2233.56 1194.41ZM2238.38 1182.95C2245.75 1182.95 2252.32 1180.94 2258.08 1176.92C2263.84 1172.77 2268 1167.14 2270.54 1160.04V1116.22C2268 1109.12 2263.84 1103.49 2258.08 1099.34C2252.32 1095.18 2245.75 1093.11 2238.38 1093.11C2227.93 1093.11 2219.69 1097.13 2213.66 1105.17C2207.63 1113.07 2204.62 1123.99 2204.62 1137.93C2204.62 1151.73 2207.63 1162.72 2213.66 1170.89C2219.83 1178.93 2228.07 1182.95 2238.38 1182.95ZM2309.4 1166.07L2324.07 1174.11C2331.58 1178.26 2338.21 1181.28 2343.97 1183.16C2349.87 1184.9 2355.7 1185.77 2361.46 1185.77C2368.69 1185.77 2374.05 1184.43 2377.54 1181.75C2381.16 1179.07 2382.96 1174.98 2382.96 1169.49C2382.96 1165.47 2381.89 1162.05 2379.75 1159.24C2377.74 1156.42 2374.25 1153.81 2369.3 1151.4C2364.47 1148.99 2357.64 1146.44 2348.79 1143.76C2334.99 1139.61 2324.88 1134.71 2318.44 1129.09C2312.15 1123.32 2309 1116.29 2309 1107.98C2309 1099.94 2311.61 1093.58 2316.84 1088.89C2322.2 1084.2 2329.43 1081.85 2338.54 1081.85C2349.53 1081.85 2360.18 1085.47 2370.5 1092.71L2386.18 1084.46V1113.41L2372.31 1103.16C2361.06 1094.58 2350.2 1090.29 2339.75 1090.29C2333.59 1090.29 2328.9 1091.63 2325.68 1094.31C2322.6 1096.86 2321.06 1100.68 2321.06 1105.77C2321.06 1111.53 2323.4 1116.16 2328.09 1119.64C2332.78 1123.12 2341.22 1126.54 2353.42 1129.89C2368.02 1133.91 2378.61 1138.8 2385.18 1144.56C2391.88 1150.33 2395.23 1157.63 2395.23 1166.47C2395.23 1175.45 2392.28 1182.35 2386.38 1187.18C2380.49 1192 2372.18 1194.41 2361.46 1194.41C2355.29 1194.41 2349.4 1193.61 2343.77 1192C2338.28 1190.26 2332.58 1187.58 2326.68 1183.96L2309.4 1194.01V1166.07ZM2505.83 1167.48C2495.38 1185.43 2479.9 1194.41 2459.4 1194.41C2448.95 1194.41 2439.84 1192.27 2432.06 1187.98C2424.29 1183.69 2418.26 1177.59 2413.97 1169.69C2409.69 1161.65 2407.54 1152.2 2407.54 1141.35C2407.54 1130.09 2409.75 1119.97 2414.17 1111C2418.73 1101.88 2425.03 1094.78 2433.07 1089.69C2441.11 1084.46 2450.09 1081.85 2460 1081.85C2467.37 1081.85 2474.07 1083.26 2480.1 1086.07C2486.27 1088.75 2491.09 1092.44 2494.57 1097.13C2498.19 1101.68 2500 1106.71 2500 1112.2C2500 1115.28 2499.33 1117.7 2497.99 1119.44C2496.65 1121.05 2494.71 1121.85 2492.16 1121.85C2489.75 1121.85 2487.87 1121.05 2486.53 1119.44C2485.33 1117.83 2484.52 1115.15 2484.12 1111.4C2482.51 1097.46 2474.81 1090.5 2461.01 1090.5C2453.24 1090.5 2446.4 1092.5 2440.51 1096.52C2434.74 1100.54 2430.25 1106.17 2427.04 1113.41C2423.96 1120.64 2422.42 1129.02 2422.42 1138.53C2422.42 1153.14 2426.03 1164.53 2433.27 1172.7C2440.64 1180.88 2450.76 1184.96 2463.62 1184.96C2478.63 1184.96 2492.16 1178.73 2504.22 1166.27L2505.83 1167.48ZM2546.4 1194.41C2535.68 1194.41 2527.17 1191.87 2520.88 1186.77C2514.71 1181.55 2511.63 1174.51 2511.63 1165.67C2511.63 1152.8 2519 1143.69 2533.74 1138.33C2544.33 1134.45 2559.2 1132.5 2578.36 1132.5V1123.06C2578.36 1100.28 2569.25 1088.89 2551.03 1088.89C2543.92 1088.89 2538.43 1090.63 2534.54 1094.11C2530.66 1097.6 2528.58 1102.69 2528.31 1109.39C2528.04 1116.36 2525.77 1119.84 2521.48 1119.84C2519.33 1119.84 2517.66 1118.97 2516.45 1117.23C2515.25 1115.35 2514.64 1112.87 2514.64 1109.79C2514.64 1104.56 2516.25 1099.81 2519.47 1095.52C2522.68 1091.23 2527.17 1087.88 2532.94 1085.47C2538.7 1083.06 2545.13 1081.85 2552.23 1081.85C2564.83 1081.85 2574.68 1085.54 2581.78 1092.91C2588.88 1100.14 2592.43 1110.26 2592.43 1123.26V1171.5C2592.43 1178.33 2594.64 1181.75 2599.06 1181.75C2600.81 1181.75 2602.21 1181.41 2603.29 1180.74L2604.29 1181.55C2603.75 1184.76 2602.41 1187.31 2600.27 1189.19C2598.26 1191.06 2595.65 1192 2592.43 1192C2588.68 1192 2585.53 1190.73 2582.98 1188.18C2580.57 1185.5 2579.23 1182.08 2578.96 1177.93C2576.15 1183.29 2571.93 1187.38 2566.3 1190.19C2560.81 1193 2554.17 1194.41 2546.4 1194.41ZM2551.03 1185.97C2557.06 1185.97 2562.42 1184.56 2567.11 1181.75C2571.93 1178.93 2575.68 1174.98 2578.36 1169.89V1137.53C2570.99 1137.53 2563.62 1138.2 2556.25 1139.54C2548.88 1140.74 2543.05 1142.29 2538.76 1144.16C2530.46 1147.78 2526.3 1154.21 2526.3 1163.46C2526.3 1170.16 2528.58 1175.58 2533.14 1179.74C2537.69 1183.89 2543.66 1185.97 2551.03 1185.97ZM2623.66 1214.91V1102.96L2607.58 1085.47H2636.32V1106.98C2639.94 1099.07 2645.1 1092.91 2651.8 1088.48C2658.5 1084.06 2666.14 1081.85 2674.71 1081.85C2683.56 1081.85 2691.26 1084.13 2697.83 1088.69C2704.4 1093.24 2709.42 1099.74 2712.9 1108.18C2716.52 1116.62 2718.33 1126.54 2718.33 1137.93C2718.33 1149.19 2716.52 1159.1 2712.9 1167.68C2709.29 1176.25 2704.19 1182.89 2697.63 1187.58C2691.06 1192.13 2683.36 1194.41 2674.51 1194.41C2666.47 1194.41 2659.24 1192.47 2652.81 1188.58C2646.51 1184.7 2641.48 1179.2 2637.73 1172.1V1218.33L2649.99 1232.2H2615.42L2623.66 1214.91ZM2637.73 1160.04C2640.14 1167.01 2644.23 1172.57 2649.99 1176.72C2655.75 1180.88 2662.39 1182.95 2669.89 1182.95C2680.21 1182.95 2688.38 1178.93 2694.41 1170.89C2700.58 1162.72 2703.66 1151.73 2703.66 1137.93C2703.66 1124.13 2700.64 1113.21 2694.61 1105.17C2688.58 1097.13 2680.41 1093.11 2670.09 1093.11C2662.59 1093.11 2655.89 1095.18 2649.99 1099.34C2644.23 1103.49 2640.14 1109.12 2637.73 1116.22V1160.04ZM2746.06 1138.33C2746.33 1153.47 2750.02 1165.07 2757.12 1173.11C2764.36 1181.01 2774.54 1184.96 2787.67 1184.96C2795.04 1184.96 2801.54 1183.56 2807.17 1180.74C2812.8 1177.93 2818.96 1172.97 2825.66 1165.87L2827.47 1166.88C2817.42 1185.23 2802.01 1194.41 2781.24 1194.41C2771.06 1194.41 2762.21 1192.2 2754.71 1187.78C2747.2 1183.36 2741.37 1177.06 2737.22 1168.88C2733.2 1160.58 2731.19 1150.86 2731.19 1139.74C2731.19 1128.35 2733.33 1118.3 2737.62 1109.59C2741.91 1100.88 2747.87 1094.11 2755.51 1089.29C2763.28 1084.33 2772.19 1081.85 2782.24 1081.85C2796.05 1081.85 2806.57 1086.68 2813.8 1096.32C2821.04 1105.97 2824.59 1119.97 2824.45 1138.33H2746.06ZM2781.04 1090.29C2770.85 1090.29 2762.68 1093.84 2756.52 1100.95C2750.49 1108.05 2747 1118.1 2746.06 1131.1H2810.79C2810.79 1117.7 2808.24 1107.58 2803.15 1100.75C2798.19 1093.78 2790.82 1090.29 2781.04 1090.29ZM2883.91 1174.71V1058.74L2867.83 1041.25H2897.98V1178.13L2910.24 1192H2875.67L2883.91 1174.71ZM2939.28 1042.86C2942.09 1042.86 2944.44 1043.8 2946.32 1045.67C2948.19 1047.55 2949.13 1049.96 2949.13 1052.91C2949.13 1055.72 2948.19 1058.07 2946.32 1059.94C2944.44 1061.82 2942.09 1062.76 2939.28 1062.76C2936.47 1062.76 2934.12 1061.82 2932.25 1059.94C2930.37 1058.07 2929.43 1055.72 2929.43 1052.91C2929.43 1049.96 2930.37 1047.55 2932.25 1045.67C2934.12 1043.8 2936.47 1042.86 2939.28 1042.86ZM2932.45 1174.71V1102.96L2916.37 1085.47H2946.52V1178.13L2958.78 1192H2924.21L2932.45 1174.71ZM2980.99 1174.51V1058.94L2964.7 1041.25H2995.06V1143.76L3043.09 1099.54L3032.84 1085.47H3069.22L3018.57 1132.1L3070.63 1192H3035.46L3040.88 1177.73L3008.52 1141.35L2995.06 1153.81V1178.33L3007.12 1192H2972.74L2980.99 1174.51ZM3086.9 1138.33C3087.17 1153.47 3090.85 1165.07 3097.96 1173.11C3105.19 1181.01 3115.38 1184.96 3128.51 1184.96C3135.88 1184.96 3142.38 1183.56 3148.01 1180.74C3153.63 1177.93 3159.8 1172.97 3166.5 1165.87L3168.31 1166.88C3158.26 1185.23 3142.85 1194.41 3122.08 1194.41C3111.89 1194.41 3103.05 1192.2 3095.54 1187.78C3088.04 1183.36 3082.21 1177.06 3078.06 1168.88C3074.04 1160.58 3072.03 1150.86 3072.03 1139.74C3072.03 1128.35 3074.17 1118.3 3078.46 1109.59C3082.75 1100.88 3088.71 1094.11 3096.35 1089.29C3104.12 1084.33 3113.03 1081.85 3123.08 1081.85C3136.88 1081.85 3147.4 1086.68 3154.64 1096.32C3161.87 1105.97 3165.43 1119.97 3165.29 1138.33H3086.9ZM3121.88 1090.29C3111.69 1090.29 3103.52 1093.84 3097.35 1100.95C3091.32 1108.05 3087.84 1118.1 3086.9 1131.1H3151.62C3151.62 1117.7 3149.08 1107.58 3143.99 1100.75C3139.03 1093.78 3131.66 1090.29 3121.88 1090.29ZM3198.58 1107.98C3207.83 1107.85 3215 1105.44 3220.09 1100.75C3225.18 1095.92 3227.73 1089.42 3227.73 1081.25C3227.73 1073.61 3225.52 1067.71 3221.1 1063.56C3216.67 1059.41 3210.71 1057.33 3203.21 1057.33C3200.8 1057.33 3198.72 1057.53 3196.98 1057.93C3195.23 1058.33 3193.22 1058.87 3190.95 1059.54C3188.4 1060.48 3186.12 1060.95 3184.11 1060.95C3181.43 1060.95 3179.29 1060.28 3177.68 1058.94C3176.21 1057.46 3175.47 1055.59 3175.47 1053.31C3175.47 1050.23 3177.01 1047.82 3180.09 1046.07C3183.31 1044.33 3187.8 1043.46 3193.56 1043.46C3201.47 1043.46 3208.63 1045.07 3215.07 1048.28C3221.63 1051.5 3226.79 1055.92 3230.54 1061.55C3234.3 1067.18 3236.17 1073.48 3236.17 1080.44C3236.17 1089.15 3233.42 1096.73 3227.93 1103.16C3222.44 1109.59 3215.54 1113.48 3207.23 1114.82V1156.02H3198.58V1107.98ZM3202.81 1193.01C3199.99 1193.01 3197.65 1192.13 3195.77 1190.39C3194.03 1188.52 3193.16 1186.17 3193.16 1183.36C3193.16 1180.54 3194.03 1178.2 3195.77 1176.32C3197.65 1174.45 3199.99 1173.51 3202.81 1173.51C3205.62 1173.51 3207.9 1174.45 3209.64 1176.32C3211.52 1178.2 3212.45 1180.54 3212.45 1183.36C3212.45 1186.17 3211.52 1188.52 3209.64 1190.39C3207.9 1192.13 3205.62 1193.01 3202.81 1193.01Z" fill="black"/>
<path d="M1964.21 582.594C1962.93 582.594 1961.74 582.377 1960.65 581.943C1959.57 581.488 1958.6 580.817 1957.73 579.928C1956.87 579.039 1956.18 577.841 1955.69 576.332C1955.19 574.803 1954.94 573.036 1954.94 571.031C1954.94 569.254 1955.2 567.652 1955.72 566.226C1956.23 564.779 1956.93 563.612 1957.8 562.723C1958.66 561.834 1959.64 561.152 1960.74 560.677C1961.84 560.202 1962.98 559.964 1964.18 559.964C1966.33 559.964 1968.15 560.625 1969.64 561.948C1971.13 563.271 1972.04 565.017 1972.4 567.187L1969.23 567.745C1968.57 564.5 1966.9 562.878 1964.21 562.878C1962.5 562.878 1961.06 563.581 1959.9 564.986C1958.75 566.371 1958.17 568.386 1958.17 571.031C1958.17 573.883 1958.73 576.043 1959.84 577.51C1960.98 578.957 1962.43 579.68 1964.21 579.68C1965.87 579.68 1967.16 579.184 1968.09 578.192C1969.04 577.2 1969.5 575.815 1969.48 574.038H1964.49V571.279H1972.52V573.635C1972.52 576.425 1971.76 578.616 1970.23 580.207C1968.7 581.798 1966.69 582.594 1964.21 582.594ZM1976.4 575.061V560.429H1979.5V574.875C1979.5 576.425 1979.89 577.613 1980.67 578.44C1981.48 579.267 1982.67 579.68 1984.24 579.68C1985.81 579.68 1987 579.277 1987.8 578.471C1988.61 577.644 1989.01 576.466 1989.01 574.937V560.429H1992.11V575.061C1992.11 577.52 1991.41 579.391 1990 580.672C1988.62 581.953 1986.7 582.594 1984.24 582.594C1981.78 582.594 1979.86 581.953 1978.47 580.672C1977.09 579.391 1976.4 577.52 1976.4 575.061ZM1997.39 582.129V560.429H2000.49V582.129H1997.39ZM2009.33 579.277H2012.83C2014.85 579.277 2016.42 578.667 2017.54 577.448C2018.66 576.208 2019.21 574.141 2019.21 571.248C2019.21 568.623 2018.66 566.65 2017.54 565.327C2016.42 563.984 2014.92 563.312 2013.01 563.312H2009.33V579.277ZM2006.23 582.129V560.429H2013.17C2014.41 560.429 2015.58 560.646 2016.67 561.08C2017.77 561.514 2018.76 562.155 2019.65 563.002C2020.54 563.849 2021.24 564.986 2021.76 566.412C2022.29 567.817 2022.56 569.429 2022.56 571.248C2022.56 573.232 2022.29 574.958 2021.76 576.425C2021.22 577.892 2020.49 579.029 2019.56 579.835C2018.63 580.62 2017.61 581.199 2016.52 581.571C2015.44 581.943 2014.26 582.129 2012.98 582.129H2006.23ZM2026.91 582.129V560.429H2030.01V582.129H2026.91ZM2035.74 582.129V560.429H2038.93L2048.27 576.611H2048.33V560.429H2051.46V582.129H2048.33L2038.9 565.947H2038.84V582.129H2035.74ZM2065.05 582.594C2063.77 582.594 2062.58 582.377 2061.49 581.943C2060.41 581.488 2059.44 580.817 2058.57 579.928C2057.71 579.039 2057.02 577.841 2056.53 576.332C2056.03 574.803 2055.78 573.036 2055.78 571.031C2055.78 569.254 2056.04 567.652 2056.56 566.226C2057.08 564.779 2057.77 563.612 2058.64 562.723C2059.5 561.834 2060.49 561.152 2061.58 560.677C2062.68 560.202 2063.82 559.964 2065.02 559.964C2067.17 559.964 2068.99 560.625 2070.48 561.948C2071.97 563.271 2072.89 565.017 2073.24 567.187L2070.08 567.745C2069.41 564.5 2067.74 562.878 2065.05 562.878C2063.34 562.878 2061.9 563.581 2060.74 564.986C2059.59 566.371 2059.01 568.386 2059.01 571.031C2059.01 573.883 2059.57 576.043 2060.68 577.51C2061.82 578.957 2063.28 579.68 2065.05 579.68C2066.71 579.68 2068 579.184 2068.93 578.192C2069.88 577.2 2070.34 575.815 2070.32 574.038H2065.33V571.279H2073.36V573.635C2073.36 576.425 2072.6 578.616 2071.07 580.207C2069.54 581.798 2067.53 582.594 2065.05 582.594ZM2100.89 582.625L2098.94 580.703C2097.37 581.964 2095.55 582.594 2093.48 582.594C2092.24 582.594 2091.08 582.377 2090.01 581.943C2088.93 581.509 2087.95 580.858 2087.06 579.99C2086.19 579.101 2085.5 577.903 2084.99 576.394C2084.47 574.865 2084.21 573.098 2084.21 571.093C2084.21 567.559 2085.11 564.821 2086.91 562.878C2088.73 560.935 2090.92 559.964 2093.48 559.964C2096 559.964 2098.16 560.956 2099.96 562.94C2101.76 564.903 2102.66 567.652 2102.66 571.186C2102.66 574.369 2101.94 576.962 2100.52 578.967L2102.56 580.982L2100.89 582.625ZM2091.81 573.573L2093.48 571.93L2098.35 576.859C2099.05 575.516 2099.4 573.625 2099.4 571.186C2099.4 568.499 2098.83 566.443 2097.7 565.017C2096.58 563.591 2095.17 562.878 2093.48 562.878C2091.74 562.878 2090.31 563.581 2089.17 564.986C2088.03 566.371 2087.47 568.406 2087.47 571.093C2087.47 573.966 2088.02 576.125 2089.14 577.572C2090.26 578.998 2091.7 579.711 2093.48 579.711C2094.89 579.711 2096.02 579.36 2096.89 578.657L2091.81 573.573ZM2106.54 575.061V560.429H2109.64V574.875C2109.64 576.425 2110.03 577.613 2110.82 578.44C2111.62 579.267 2112.81 579.68 2114.38 579.68C2115.95 579.68 2117.14 579.277 2117.95 578.471C2118.75 577.644 2119.16 576.466 2119.16 574.937V560.429H2122.26V575.061C2122.26 577.52 2121.55 579.391 2120.15 580.672C2118.76 581.953 2116.84 582.594 2114.38 582.594C2111.92 582.594 2110 581.953 2108.62 580.672C2107.23 579.391 2106.54 577.52 2106.54 575.061ZM2127.38 582.129V560.429H2140.65V563.312H2130.48V569.605H2139.78V572.364H2130.48V579.277H2140.65V582.129H2127.38ZM2144.06 574.72L2147.31 574.069C2147.6 576.032 2148.14 577.458 2148.92 578.347C2149.71 579.236 2151 579.68 2152.8 579.68C2154.27 579.68 2155.39 579.37 2156.18 578.75C2156.98 578.13 2157.39 577.334 2157.39 576.363C2157.39 575.392 2157.03 574.627 2156.3 574.069C2155.58 573.511 2153.98 572.839 2151.5 572.054C2149.14 571.31 2147.46 570.463 2146.44 569.512C2145.45 568.541 2144.96 567.311 2144.96 565.823C2144.96 564.211 2145.59 562.837 2146.85 561.7C2148.11 560.543 2149.81 559.964 2151.96 559.964C2153.99 559.964 2155.7 560.47 2157.11 561.483C2158.51 562.496 2159.37 563.984 2159.68 565.947L2156.58 566.629C2156.31 565.43 2155.83 564.511 2155.12 563.87C2154.42 563.209 2153.37 562.878 2151.96 562.878C2150.68 562.878 2149.71 563.157 2149.05 563.715C2148.39 564.273 2148.06 564.976 2148.06 565.823C2148.06 566.588 2148.39 567.208 2149.05 567.683C2149.71 568.138 2151.2 568.747 2153.51 569.512C2156.22 570.421 2158.05 571.351 2159 572.302C2159.97 573.253 2160.46 574.544 2160.46 576.177C2160.46 578.016 2159.76 579.546 2158.38 580.765C2157.02 581.984 2155.15 582.594 2152.77 582.594C2150.21 582.594 2148.19 581.933 2146.72 580.61C2145.26 579.267 2144.37 577.303 2144.06 574.72ZM2168.44 582.129V563.312H2161.87V560.429H2178.15V563.312H2171.54V582.129H2168.44ZM2181.72 582.129V560.429H2184.82V582.129H2181.72ZM2198.59 579.711C2200.35 579.711 2201.77 579.008 2202.87 577.603C2203.96 576.198 2204.51 574.059 2204.51 571.186C2204.51 568.499 2203.94 566.443 2202.81 565.017C2201.69 563.591 2200.28 562.878 2198.59 562.878C2196.85 562.878 2195.42 563.581 2194.28 564.986C2193.14 566.371 2192.58 568.406 2192.58 571.093C2192.58 573.966 2193.13 576.125 2194.25 577.572C2195.37 578.998 2196.81 579.711 2198.59 579.711ZM2198.59 582.594C2197.35 582.594 2196.19 582.377 2195.12 581.943C2194.04 581.509 2193.06 580.858 2192.17 579.99C2191.3 579.101 2190.61 577.903 2190.1 576.394C2189.58 574.865 2189.32 573.098 2189.32 571.093C2189.32 567.559 2190.22 564.821 2192.02 562.878C2193.84 560.935 2196.03 559.964 2198.59 559.964C2201.11 559.964 2203.27 560.956 2205.07 562.94C2206.87 564.903 2207.77 567.652 2207.77 571.186C2207.77 573.191 2207.51 574.947 2206.99 576.456C2206.49 577.965 2205.8 579.153 2204.91 580.021C2204.05 580.889 2203.07 581.54 2202 581.974C2200.95 582.387 2199.81 582.594 2198.59 582.594ZM2212.11 582.129V560.429H2215.31L2224.64 576.611H2224.7V560.429H2227.83V582.129H2224.7L2215.28 565.947H2215.21V582.129H2212.11Z" fill="black"/>
<rect x="1915.5" y="525.5" width="352" height="91.2583" rx="45.6291" stroke="black" stroke-width="3"/>
</g>
<defs>
<clipPath id="clip0_328_33309">
<rect width="3840" height="1828" fill="white"/>
</clipPath>
</defs>
</svg>
