<svg width="140" height="66" viewBox="0 0 140 66" fill="none" xmlns="http://www.w3.org/2000/svg">
<path d="M32.7545 39.8047L93.4373 12.0632L110.574 4.22922L110.681 2.50271L68.0375 22.5951L25.3939 42.6875C17.3398 46.4833 9.2857 50.2792 1.23161 54.075L1.44432 55.6489C17.3078 48.0375 33.3113 40.7137 49.443 33.6907C65.5748 26.6676 81.8203 19.9511 98.1911 13.5281C107.409 9.91368 116.664 6.39325 125.949 2.9697L126.056 1.2432L84.3524 22.2511C70.4546 29.2552 56.5466 36.2549 42.6488 43.259L19.1693 55.0865C18.7385 55.3001 17.8858 55.9833 18.0361 56.5517C18.1892 57.1693 19.0213 56.8377 19.3821 56.6604C34.404 49.2084 49.6078 42.1279 64.9919 35.4363C80.3761 28.7446 95.7742 22.4914 111.391 16.5952C120.206 13.2667 129.063 10.0639 137.962 6.987L138.074 5.25036C121.854 13.1129 105.586 20.8771 89.2645 28.5285C72.9433 36.1799 56.6738 43.6851 40.3026 51.1051C31.081 55.2824 21.8479 59.4308 12.6003 63.5431L12.4932 65.2696C27.6947 57.7376 43.081 50.5844 58.6346 43.8085C74.1881 37.0326 89.763 30.6922 105.556 24.7088C114.483 21.3193 123.458 18.0526 132.475 14.9118C133.039 14.7124 133.828 14.1465 133.923 13.514C134.018 12.8814 133.364 12.874 132.91 13.0298C116.837 18.6303 100.897 24.6053 85.1249 30.9823C69.3531 37.3592 53.7413 44.1164 38.3013 51.2408C29.5714 55.2725 20.8978 59.4241 12.2849 63.6855C11.854 63.8991 11.1212 64.5011 11.1536 65.0494C11.186 65.5978 11.7484 65.6082 12.1705 65.4149C28.6972 58.067 45.1778 50.6033 61.6108 43.0414C78.0365 35.4823 94.4044 27.8207 110.732 20.0578C119.933 15.6794 129.115 11.275 138.279 6.82719C138.713 6.62084 139.45 6.00872 139.41 5.46327C139.371 4.91783 138.823 4.94353 138.383 5.09346C122.485 10.5996 106.724 16.4946 91.1186 22.7801C75.5207 29.0626 60.0885 35.7399 44.8236 42.7945C36.215 46.7694 27.6582 50.8745 19.1592 55.0822L19.3719 56.6561L61.0755 35.6482C74.9733 28.6441 88.8812 21.6444 102.779 14.6403L126.258 2.8128C126.689 2.59922 127.422 1.99723 127.382 1.45179C127.343 0.906346 126.792 0.924818 126.366 1.0863C109.743 7.21608 93.2303 13.6452 76.8492 20.3822C60.5265 27.096 44.3249 34.1134 28.2559 41.4214C19.1977 45.5419 10.177 49.7565 1.21125 54.0664C0.777501 54.2727 -0.0621617 54.9675 0.0780192 55.5316C0.233947 56.1564 1.06033 55.8103 1.42108 55.6331C15.6366 48.938 29.8521 42.243 44.0647 35.5407L86.7082 15.4483L110.873 4.06799C111.307 3.86164 112.034 3.24519 112 2.71421C111.966 2.18322 111.405 2.15541 110.983 2.34871L50.3209 30.0989L33.1843 37.9328C32.6265 38.1886 31.8418 38.6605 31.7366 39.3307C31.6434 39.9458 32.2988 40.0198 32.7472 39.8076L32.7545 39.8047Z" fill="#EEE3D3"/>
</svg>
