<svg width="71" height="73" viewBox="0 0 71 73" fill="none" xmlns="http://www.w3.org/2000/svg">
<rect width="70.5134" height="72.2545" rx="13.058" fill="#1D0E1F"/>
<path d="M48.625 47.8023H47.0275V44.9898C47.0266 44.6917 46.9078 44.4061 46.697 44.1953C46.4862 43.9845 46.2006 43.8657 45.9025 43.8648H42.8706V41.0523C42.8707 40.9046 42.8416 40.7583 42.7851 40.6218C42.7286 40.4853 42.6457 40.3612 42.5412 40.2568C42.4367 40.1523 42.3127 40.0694 42.1762 40.0129C42.0397 39.9564 41.8934 39.9273 41.7456 39.9273H34.5625V38.223C34.1878 38.2458 33.8122 38.2458 33.4375 38.223V39.9273H26.2544C26.1066 39.9273 25.9603 39.9564 25.8238 40.0129C25.6873 40.0694 25.5633 40.1523 25.4588 40.2568C25.3543 40.3612 25.2714 40.4853 25.2149 40.6218C25.1584 40.7583 25.1293 40.9046 25.1294 41.0523V43.8648H22.0975C21.7994 43.8657 21.5138 43.9845 21.303 44.1953C21.0922 44.4061 20.9734 44.6917 20.9725 44.9898V47.8023H19.375C19.0769 47.8032 18.7913 47.922 18.5805 48.1328C18.3697 48.3436 18.2509 48.6292 18.25 48.9273V50.6148C18.2509 50.9129 18.3697 51.1986 18.5805 51.4094C18.7913 51.6202 19.0769 51.739 19.375 51.7398H23.695C23.9931 51.739 24.2787 51.6202 24.4895 51.4094C24.7003 51.1986 24.8191 50.9129 24.82 50.6148V48.9273C24.8191 48.6292 24.7003 48.3436 24.4895 48.1328C24.2787 47.922 23.9931 47.8032 23.695 47.8023H22.0975V44.9898H29.2806V47.8023H27.6831C27.385 47.8032 27.0994 47.922 26.8886 48.1328C26.6778 48.3436 26.559 48.6292 26.5581 48.9273V50.6148C26.559 50.9129 26.6778 51.1986 26.8886 51.4094C27.0994 51.6202 27.385 51.739 27.6831 51.7398H32.0031C32.1509 51.7399 32.2972 51.7108 32.4337 51.6543C32.5702 51.5978 32.6942 51.5149 32.7987 51.4104C32.9032 51.306 32.986 51.1819 33.0426 51.0454C33.0991 50.9089 33.1282 50.7626 33.1281 50.6148V48.9273C33.1282 48.7796 33.0991 48.6333 33.0426 48.4968C32.9861 48.3603 32.9032 48.2362 32.7987 48.1318C32.6942 48.0273 32.5702 47.9444 32.4337 47.8879C32.2972 47.8314 32.1509 47.8023 32.0031 47.8023H30.4056V44.9898C30.4057 44.8421 30.3766 44.6958 30.3201 44.5593C30.2636 44.4228 30.1807 44.2987 30.0762 44.1943C29.9717 44.0898 29.8477 44.0069 29.7112 43.9504C29.5747 43.8939 29.4284 43.8648 29.2806 43.8648H26.2544V41.0523H41.7456V43.8648H38.7194C38.5716 43.8648 38.4253 43.8939 38.2888 43.9504C38.1523 44.0069 38.0283 44.0898 37.9238 44.1943C37.8193 44.2987 37.7364 44.4228 37.6799 44.5593C37.6234 44.6958 37.5943 44.8421 37.5944 44.9898V47.8023H35.9969C35.8491 47.8023 35.7028 47.8314 35.5663 47.8879C35.4298 47.9444 35.3058 48.0273 35.2013 48.1318C35.0968 48.2362 35.0139 48.3603 34.9574 48.4968C34.9009 48.6333 34.8718 48.7796 34.8719 48.9273V50.6148C34.8718 50.7626 34.9009 50.9089 34.9574 51.0454C35.014 51.1819 35.0968 51.306 35.2013 51.4104C35.3058 51.5149 35.4298 51.5978 35.5663 51.6543C35.7028 51.7108 35.8491 51.7399 35.9969 51.7398H40.3169C40.615 51.739 40.9006 51.6202 41.1114 51.4094C41.3222 51.1986 41.441 50.9129 41.4419 50.6148V48.9273C41.441 48.6292 41.3222 48.3436 41.1114 48.1328C40.9006 47.922 40.615 47.8032 40.3169 47.8023H38.7194V44.9898H45.9025V47.8023H44.305C44.0069 47.8032 43.7213 47.922 43.5105 48.1328C43.2997 48.3436 43.1809 48.6292 43.18 48.9273V50.6148C43.1809 50.9129 43.2997 51.1986 43.5105 51.4094C43.7213 51.6202 44.0069 51.739 44.305 51.7398H48.625C48.9231 51.739 49.2087 51.6202 49.4195 51.4094C49.6303 51.1986 49.7491 50.9129 49.75 50.6148V48.9273C49.7491 48.6292 49.6303 48.3436 49.4195 48.1328C49.2087 47.922 48.9231 47.8032 48.625 47.8023ZM39.3663 22.1748C37.8515 20.9375 35.9558 20.2617 34 20.2617C32.0442 20.2617 30.1484 20.9376 28.6337 22.175C30.1448 23.4203 32.0419 24.1014 34 24.1013C35.9581 24.1013 37.8552 23.4202 39.3663 22.1748ZM37.9487 30.9555C36.9667 32.6554 36.6105 34.6454 36.9419 36.5805C38.7837 35.904 40.3299 34.6031 41.3115 32.9041C42.293 31.2052 42.6477 29.2158 42.3137 27.2823C40.4728 27.9566 38.9277 29.2568 37.9487 30.9555Z" fill="#ECD9FF"/>
<path d="M31.0247 30.3987C32.1597 32.366 32.5547 34.674 32.1384 36.9068C32.7495 37.0445 33.3739 37.1143 34.0003 37.1149C34.6272 37.1114 35.2517 37.0378 35.8622 36.8955C35.4468 34.6636 35.8433 32.3566 36.9801 30.3915C38.1169 28.4263 39.919 26.9325 42.0609 26.1799C41.6828 24.9789 41.0409 23.8777 40.1822 22.9568C38.4594 24.4302 36.2672 25.24 34.0003 25.2405C31.7305 25.2416 29.5353 24.4294 27.8128 22.9512C27.5348 23.2508 27.2791 23.5704 27.0478 23.9074C26.5658 24.6038 26.194 25.3703 25.9453 26.1799C28.0885 26.9334 29.8906 28.4302 31.0247 30.3987Z" fill="#ECD9FF"/>
<path d="M28.8367 35.3419C29.5087 35.8639 30.2559 36.2811 31.0529 36.5794C31.3861 34.6467 31.0318 32.6584 30.0515 30.9597C29.0712 29.2611 27.5268 27.9596 25.6867 27.2812C25.4306 28.7842 25.5885 30.3285 26.1435 31.7485C26.6984 33.1686 27.6294 34.4108 28.8367 35.3419Z" fill="#ECD9FF"/>
</svg>
