<svg width="70" height="70" viewBox="0 0 70 70" fill="none" xmlns="http://www.w3.org/2000/svg">
<rect width="70" height="70" rx="13.058" fill="#1D0E1F"/>
<path d="M44.4363 39.8547C41.0545 39.8547 38.2727 42.6365 38.2727 46.0184C38.2727 49.4002 41.0545 52.182 44.4363 52.182C47.8181 52.182 50.5999 49.4002 50.5999 46.0184C50.5999 42.6365 47.8181 39.8547 44.4363 39.8547ZM46.9454 46.8365H44.4363C44.109 46.8365 43.8908 46.5638 43.8908 46.2911V43.2365C43.8908 42.9093 44.109 42.6911 44.4363 42.6911C44.709 42.6911 44.9817 42.9093 44.9817 43.2365V45.7456H46.9454C47.2727 45.7456 47.4908 46.0184 47.4908 46.2911C47.4908 46.5638 47.2727 46.8365 46.9454 46.8365ZM27.1999 22.4547C27.3636 23.0002 27.8545 23.382 28.4545 23.382H33.5272C34.1272 23.382 34.6181 23.0002 34.7817 22.4547L35.6545 19.182C35.8181 18.4729 35.3272 17.8184 34.6181 17.8184H27.3636C26.6545 17.8184 26.109 18.4729 26.3272 19.182L27.1999 22.4547ZM24.4727 26.9275H27.6363V29.3275H24.4727V26.9275ZM24.4727 39.5275H27.6363V41.9275H24.4727V39.5275ZM24.4727 33.2002H27.6363V35.6002H24.4727V33.2002Z" fill="#ECD9FF"/>
<path d="M42.5822 39.0368V22.2913C42.5822 20.7095 41.2731 19.4004 39.6913 19.4004H36.7458V19.5095L35.8731 22.7822C35.6004 23.8186 34.6731 24.5277 33.5822 24.5277H28.4549C27.364 24.5277 26.4368 23.8186 26.164 22.7822L25.2913 19.5095V19.4004H22.2913C20.7095 19.4004 19.4004 20.7095 19.4004 22.2913V45.1458C19.4004 46.7277 20.7095 48.0368 22.2913 48.0368H37.4549C37.2913 47.3822 37.1822 46.7277 37.1822 46.0186C37.1822 42.6913 39.4731 39.8549 42.5822 39.0368ZM30.5822 26.3277H38.2731C38.6004 26.3277 38.8186 26.6004 38.8186 26.8731C38.8186 27.1458 38.6004 27.4186 38.2731 27.4186H30.5822C30.3095 27.4186 30.0368 27.1458 30.0368 26.8731C30.0368 26.6004 30.3095 26.3277 30.5822 26.3277ZM30.5822 28.8368H38.2731C38.6004 28.8368 38.8186 29.1095 38.8186 29.3822C38.8186 29.7095 38.6004 29.9277 38.2731 29.9277H30.5822C30.3095 29.9277 30.0368 29.7095 30.0368 29.3822C30.0368 29.1095 30.3095 28.8368 30.5822 28.8368ZM30.5822 32.6004H38.2731C38.6004 32.6004 38.8186 32.8186 38.8186 33.1458C38.8186 33.4186 38.6004 33.6913 38.2731 33.6913H30.5822C30.3095 33.6913 30.0368 33.4186 30.0368 33.1458C30.0368 32.8731 30.3095 32.6004 30.5822 32.6004ZM30.5822 35.164H38.2731C38.6004 35.164 38.8186 35.4368 38.8186 35.7095C38.8186 36.0368 38.6004 36.2549 38.2731 36.2549H30.5822C30.3095 36.2549 30.0368 36.0368 30.0368 35.7095C30.0368 35.3822 30.3095 35.164 30.5822 35.164ZM30.5822 38.9277H38.2731C38.6004 38.9277 38.8186 39.2004 38.8186 39.4731C38.8186 39.7458 38.6004 40.0186 38.2731 40.0186H30.5822C30.3095 40.0186 30.0368 39.7458 30.0368 39.4731C30.0368 39.2004 30.3095 38.9277 30.5822 38.9277ZM28.7277 42.4731C28.7277 42.7458 28.4549 43.0186 28.1822 43.0186H23.9277C23.6549 43.0186 23.3822 42.7458 23.3822 42.4731V38.9277C23.3822 38.6549 23.6549 38.3822 23.9277 38.3822H28.1822C28.4549 38.3822 28.7277 38.6549 28.7277 38.9277V42.4731ZM28.7277 36.2004C28.7277 36.4731 28.4549 36.7458 28.1822 36.7458H23.9277C23.6549 36.7458 23.3822 36.4731 23.3822 36.2004V32.6549C23.3822 32.3822 23.6549 32.1095 23.9277 32.1095H28.1822C28.4549 32.1095 28.7277 32.3822 28.7277 32.6549V36.2004ZM28.7277 29.8731C28.7277 30.2004 28.4549 30.4186 28.1822 30.4186H23.9277C23.6549 30.4186 23.3822 30.2004 23.3822 29.8731V26.3822C23.3822 26.0549 23.6549 25.8368 23.9277 25.8368H28.1822C28.4549 25.8368 28.7277 26.0549 28.7277 26.3822V29.8731ZM34.8368 42.5277H30.5822C30.3095 42.5277 30.0368 42.3095 30.0368 41.9822C30.0368 41.7095 30.3095 41.4368 30.5822 41.4368H34.8368C35.1095 41.4368 35.3822 41.7095 35.3822 41.9822C35.3822 42.3095 35.1095 42.5277 34.8368 42.5277Z" fill="#ECD9FF"/>
</svg>
