<svg width="68" height="68" viewBox="0 0 68 68" fill="none" xmlns="http://www.w3.org/2000/svg">
<rect width="68" height="68" rx="13.058" fill="#1D0E1F"/>
<path d="M41.1049 43.4738C42.9893 43.4738 44.7965 42.7252 46.129 41.3927C47.4615 40.0602 48.2101 38.253 48.2101 36.3685C48.2101 34.4841 47.4615 32.6768 46.129 31.3443C44.7965 30.0118 42.9893 29.2633 41.1049 29.2633C39.8642 29.263 38.6453 29.5897 37.5712 30.2106H37.3732C38.3607 29.6263 39.1789 28.7948 39.7474 27.7981C40.3158 26.8014 40.6149 25.6738 40.6151 24.5264C40.6151 22.7718 39.918 21.089 38.6773 19.8482C37.4366 18.6075 35.7538 17.9105 33.9991 17.9105C32.2445 17.9105 30.5617 18.6075 29.3209 19.8482C28.0802 21.089 27.3832 22.7718 27.3832 24.5264C27.3834 25.6739 27.6825 26.8016 28.2511 27.7984C28.8198 28.7951 29.6383 29.6265 30.626 30.2106H30.429C29.3869 29.6109 28.1827 29.2633 26.8943 29.2633C25.0099 29.2633 23.2026 30.0118 21.8701 31.3443C20.5377 32.6768 19.7891 34.4841 19.7891 36.3685C19.7891 38.253 20.5377 40.0602 21.8701 41.3927C23.2026 42.7252 25.0099 43.4738 26.8943 43.4738C28.9359 43.4738 30.77 42.6079 32.066 41.2304C31.6776 45.1345 27.5622 48.2106 23.5785 48.2106H24.0522C23.6753 48.2106 23.3139 48.3603 23.0474 48.6268C22.7809 48.8933 22.6312 49.2548 22.6312 49.6317C22.6312 50.0086 22.7809 50.37 23.0474 50.6365C23.3139 50.903 23.6753 51.0527 24.0522 51.0527H43.947C44.3238 51.0527 44.6853 50.903 44.9518 50.6365C45.2183 50.37 45.368 50.0086 45.368 49.6317C45.368 49.2548 45.2183 48.8933 44.9518 48.6268C44.6853 48.3603 44.3238 48.2106 43.947 48.2106H44.4206C40.437 48.2106 36.3216 45.1336 35.9332 41.2295C36.5954 41.938 37.3962 42.5028 38.2859 42.8889C39.1755 43.2749 40.135 43.474 41.1049 43.4738Z" fill="#ECD9FF"/>
</svg>
