<svg width="71" height="73" viewBox="0 0 71 73" fill="none" xmlns="http://www.w3.org/2000/svg">
<rect y="0.316406" width="70.5134" height="72.2545" rx="13.058" fill="#1D0E1F"/>
<path fill-rule="evenodd" clip-rule="evenodd" d="M43.4375 30.6875C41.2629 30.6875 39.5 28.9246 39.5 26.75C39.5 24.5754 41.2629 22.8125 43.4375 22.8125C45.6121 22.8125 47.375 24.5754 47.375 26.75C47.375 28.9246 45.6121 30.6875 43.4375 30.6875ZM26.5625 30.6875C24.3879 30.6875 22.625 28.9246 22.625 26.75C22.625 24.5754 24.3879 22.8125 26.5625 22.8125C28.7371 22.8125 30.5 24.5754 30.5 26.75C30.5 28.9246 28.7371 30.6875 26.5625 30.6875ZM35 39.6877C32.5146 39.6877 30.4998 37.6729 30.4998 35.1875C30.4998 32.7021 32.5146 30.6873 35 30.6873C37.4854 30.6873 39.5002 32.7021 39.5002 35.1875C39.5002 37.6729 37.4854 39.6877 35 39.6877ZM44.0009 48.6868C44.0009 44.9585 40.9781 41.9368 37.2502 41.9368H32.7506C29.0227 41.9368 25.9999 44.9585 25.9999 48.6868V49.8118C25.9999 50.7065 26.3561 51.5653 26.9885 52.1983C27.6221 52.8313 28.4799 53.1867 29.3752 53.1867H40.6256C41.5209 53.1867 42.3787 52.8313 43.0123 52.1983C43.6447 51.5653 44.0009 50.7065 44.0009 49.8118V48.6868ZM24.9543 44.1875H22.0625C21.1676 44.1875 20.3092 43.832 19.6758 43.1992C19.043 42.5658 18.6875 41.7074 18.6875 40.8125V39.6875C18.6875 37.8971 19.3985 36.1803 20.6647 34.9147C21.9303 33.6485 23.6471 32.9375 25.4375 32.9375H27.6875C27.9986 32.9375 28.3079 32.9589 28.6128 33.0011C28.3777 33.6868 28.25 34.4225 28.25 35.1875C28.25 37.0843 29.0341 38.7999 30.2958 40.0261C28.0211 40.6696 26.1125 42.1844 24.9543 44.1875ZM41.3872 33.0011C41.6921 32.9589 42.0014 32.9375 42.3125 32.9375H44.5625C46.3529 32.9375 48.0697 33.6485 49.3353 34.9147C50.6015 36.1803 51.3125 37.8971 51.3125 39.6875V40.8125C51.3125 41.7074 50.957 42.5658 50.3242 43.1992C49.6908 43.832 48.8324 44.1875 47.9375 44.1875H45.0457C43.8875 42.1844 41.9789 40.6696 39.7042 40.0261C40.9659 38.7999 41.75 37.0843 41.75 35.1875C41.75 34.4225 41.6223 33.6868 41.3872 33.0011Z" fill="#ECD9FF"/>
</svg>
