<svg width="71" height="73" viewBox="0 0 71 73" fill="none" xmlns="http://www.w3.org/2000/svg">
<rect y="0.316406" width="70.5134" height="72.2545" rx="13.058" fill="#1D0E1F"/>
<path d="M46.4163 45.5046C46.1386 45.5054 45.8622 45.4675 45.595 45.3921L31.375 41.3309V26.1321L45.5837 22.0709C46.0262 21.9436 46.4923 21.9209 46.9451 22.0046C47.3978 22.0883 47.8249 22.2762 48.1926 22.5533C48.5603 22.8304 48.8586 23.1893 49.0638 23.6015C49.269 24.0137 49.3755 24.4679 49.375 24.9284V42.5346C49.3721 43.3195 49.0597 44.0715 48.5058 44.6275C47.9519 45.1835 47.2011 45.4987 46.4163 45.5046ZM33.625 39.6321L46.2025 43.2209C46.3104 43.2525 46.4242 43.2584 46.5347 43.2382C46.6453 43.2179 46.7496 43.1721 46.8393 43.1043C46.9289 43.0365 47.0015 42.9486 47.0511 42.8477C47.1007 42.7469 47.126 42.6358 47.125 42.5234V24.9284C47.126 24.816 47.1007 24.7049 47.0511 24.604C47.0015 24.5031 46.9289 24.4153 46.8393 24.3475C46.7496 24.2797 46.6453 24.2338 46.5347 24.2136C46.4242 24.1933 46.3104 24.1993 46.2025 24.2309L33.625 27.8309V39.6321Z" fill="#ECD9FF"/>
<path d="M33.625 41.579H23.23C22.4065 41.579 21.6167 41.2519 21.0344 40.6695C20.4521 40.0872 20.125 39.2975 20.125 38.474V29.0015C20.125 28.178 20.4521 27.3882 21.0344 26.8059C21.6167 26.2236 22.4065 25.8965 23.23 25.8965H33.625V41.579ZM23.23 28.1465C23.0032 28.1465 22.7858 28.2366 22.6254 28.3969C22.4651 28.5573 22.375 28.7747 22.375 29.0015V38.474C22.375 38.5863 22.3971 38.6974 22.4401 38.8012C22.4831 38.9049 22.546 38.9992 22.6254 39.0786C22.7048 39.158 22.7991 39.2209 22.9028 39.2639C23.0065 39.3069 23.1177 39.329 23.23 39.329H31.375V28.1465H23.23ZM48.25 39.3627V37.1127C49.1451 37.1127 50.0036 36.7572 50.6365 36.1242C51.2694 35.4913 51.625 34.6328 51.625 33.7377C51.625 32.8426 51.2694 31.9842 50.6365 31.3512C50.0036 30.7183 49.1451 30.3627 48.25 30.3627V28.1127C49.7418 28.1127 51.1726 28.7054 52.2275 29.7603C53.2824 30.8152 53.875 32.2459 53.875 33.7377C53.875 35.2296 53.2824 36.6603 52.2275 37.7152C51.1726 38.7701 49.7418 39.3627 48.25 39.3627Z" fill="#ECD9FF"/>
<path d="M30.7786 52.0406C29.9827 52.0546 29.2074 51.7868 28.5898 51.2845C27.9722 50.7822 27.5521 50.0777 27.4036 49.2956L25.5586 39.3281H32.4323L34.0748 48.0469C34.1574 48.4828 34.1532 48.9308 34.0625 49.3651C33.9718 49.7995 33.7963 50.2117 33.5461 50.5781C33.2944 50.9438 32.9731 51.2562 32.6005 51.4975C32.228 51.7388 31.8115 51.9043 31.3748 51.9844C31.1782 52.0208 30.9786 52.0396 30.7786 52.0406ZM28.2811 41.5781L29.6648 48.8681C29.7055 49.0873 29.8104 49.2895 29.9662 49.4489C30.122 49.6084 30.3216 49.718 30.5398 49.7638C30.758 49.8096 30.9848 49.7896 31.1916 49.7062C31.3984 49.6228 31.5757 49.4799 31.7011 49.2956C31.8679 49.0524 31.9325 48.7535 31.8811 48.4631L30.5761 41.5781H28.2811Z" fill="#ECD9FF"/>
<path d="M45.8988 44.3126L32.5 40.4876V26.9876L45.8988 23.1626C46.1727 23.0845 46.461 23.0708 46.741 23.1227C47.0211 23.1745 47.2854 23.2906 47.5131 23.4616C47.7409 23.6327 47.9259 23.8542 48.0538 24.1088C48.1816 24.3633 48.2488 24.644 48.25 24.9289V42.5351C48.2505 42.8209 48.1846 43.1029 48.0575 43.3589C47.9304 43.6149 47.7456 43.8378 47.5176 44.0102C47.2896 44.1825 47.0247 44.2996 46.7438 44.3521C46.4629 44.4045 46.1736 44.391 45.8988 44.3126ZM31.1838 50.8826C30.8926 50.938 30.5935 50.9353 30.3034 50.8747C30.0134 50.8141 29.7381 50.6968 29.4935 50.5295C29.2489 50.3623 29.0398 50.1484 28.8781 49.9001C28.7164 49.6518 28.6053 49.374 28.5512 49.0826L26.875 40.4539H31.4537L32.9725 48.2501C33.028 48.5404 33.0257 48.8388 32.9658 49.1283C32.9059 49.4177 32.7896 49.6925 32.6235 49.9369C32.4574 50.1814 32.2448 50.3908 31.9977 50.553C31.7507 50.7153 31.4741 50.8273 31.1838 50.8826Z" fill="#ECD9FF"/>
</svg>
