<svg width="71" height="73" viewBox="0 0 71 73" fill="none" xmlns="http://www.w3.org/2000/svg">
<rect y="0.316406" width="70.5134" height="72.2545" rx="13.058" fill="#1D0E1F"/>
<path fill-rule="evenodd" clip-rule="evenodd" d="M39.9483 22.0928C39.9483 22.0928 40.0729 20.972 41.5674 21.1587C43.062 21.3456 42.5638 23.3383 42.5638 23.3383L41.6297 30.3751C41.6297 30.3751 40.7579 33.4264 40.7579 34.6719C40.7579 35.9173 41.0693 36.976 41.0693 36.976C41.0693 36.976 41.8166 40.0273 41.8788 41.5219C41.9411 43.0164 40.8824 48.3097 40.7578 49.1192C40.6334 49.9287 40.1975 53.8519 40.1975 53.8519H30.2961L30.6075 49.4929C30.6075 49.4929 30.7319 48.4342 29.9847 47.1266C29.2374 45.8188 28.1788 42.8298 27.992 41.0861C27.8052 39.3424 26.8711 37.1006 27.6806 36.1666C28.4901 35.2325 29.1751 35.2948 29.6734 35.8552C30.1715 36.4156 30.3583 36.4156 30.3583 36.4156C30.3583 36.4156 28.2411 33.6134 29.4865 32.617C30.732 31.6206 31.5415 32.0565 32.0397 32.6793C32.5379 33.302 33.0361 33.987 33.0361 33.987C33.0361 33.987 33.1606 32.8039 32.9115 30.4375C32.6625 28.0712 31.6038 22.2797 31.6038 22.2797C31.6038 22.2797 31.0434 20.7852 32.102 20.3493C33.1607 19.9134 33.7833 20.1003 34.1569 21.7816C34.5306 23.463 36.4611 32.1188 36.4611 32.1188C36.4611 32.1188 37.3952 32.8039 38.0178 30.3752C38.6405 27.9466 39.9483 22.0929 39.9483 22.0929L39.9483 22.0928Z" fill="#ECD9FF"/>
</svg>
