<svg width="71" height="73" viewBox="0 0 71 73" fill="none" xmlns="http://www.w3.org/2000/svg">
<rect y="0.316406" width="70.5134" height="72.2545" rx="13.058" fill="#1D0E1F"/>
<path d="M19.2323 46.8725H28.3043V52.2725H19.2323C18.5123 52.2725 17.8643 51.6965 17.8643 50.9045V48.2405C17.8643 47.4485 18.4403 46.8725 19.2323 46.8725ZM31.1843 35.9285H38.8883C39.6083 35.9285 40.2563 36.5045 40.2563 37.2965V52.2725H29.8163V37.2965C29.8163 36.5045 30.3923 35.9285 31.1843 35.9285ZM52.1363 42.8405V50.8325C52.1363 51.5525 51.5603 52.2005 50.7683 52.2005H41.7683V41.4725H50.8403C51.5603 41.4725 52.1363 42.1205 52.1363 42.8405ZM42.3443 26.0645L38.5283 28.8725L39.9683 33.4085C40.0403 33.6965 39.9683 34.0565 39.6803 34.2005C39.5363 34.2725 39.3923 34.3445 39.2483 34.3445C39.1043 34.3445 38.9603 34.2725 38.8163 34.2005L35.0003 31.3925L31.1843 34.2005C30.9683 34.4165 30.6083 34.4165 30.3203 34.2005C30.1043 33.9845 29.9603 33.6965 30.0323 33.4085L31.4723 28.8725L27.6563 26.0645C27.3683 25.8485 27.2963 25.5605 27.3683 25.2725C27.4403 24.9845 27.7283 24.7685 28.0883 24.7685H32.8403L34.3523 20.2325C34.4243 19.9445 34.7123 19.7285 35.0003 19.7285C35.2883 19.7285 35.5763 19.9445 35.7203 20.2325L37.1603 24.7685H41.9123C42.2003 24.7685 42.4883 24.9845 42.6323 25.2725C42.7043 25.5605 42.5603 25.9205 42.3443 26.0645Z" fill="#ECD9FF"/>
</svg>
