<svg width="71" height="73" viewBox="0 0 71 73" fill="none" xmlns="http://www.w3.org/2000/svg">
<rect y="0.316406" width="70.5134" height="72.2545" rx="13.058" fill="#1D0E1F"/>
<g clip-path="url(#clip0_702_17524)">
<path d="M35.5 37C40.4706 37 44.5 32.9706 44.5 28C44.5 23.0294 40.4706 19 35.5 19C30.5294 19 26.5 23.0294 26.5 28C26.5 32.9706 30.5294 37 35.5 37Z" fill="#ECD9FF"/>
<path d="M52 50.5C51.9989 50.8975 51.8404 51.2783 51.5594 51.5594C51.2783 51.8404 50.8975 51.9989 50.5 52H20.5C20.1025 51.9989 19.7217 51.8404 19.4406 51.5594C19.1596 51.2783 19.0011 50.8975 19 50.5C19.0031 47.7162 20.1103 45.0472 22.0788 43.0788C24.0472 41.1103 26.7162 40.0031 29.5 40H41.5C44.2838 40.0031 46.9528 41.1103 48.9212 43.0788C50.8897 45.0472 51.9969 47.7162 52 50.5Z" fill="#ECD9FF"/>
</g>
<defs>
<clipPath id="clip0_702_17524">
<rect width="33" height="33" fill="white" transform="translate(19 19)"/>
</clipPath>
</defs>
</svg>
