<svg width="71" height="73" viewBox="0 0 71 73" fill="none" xmlns="http://www.w3.org/2000/svg">
<rect y="0.316406" width="70.5134" height="72.2545" rx="13.058" fill="#1D0E1F"/>
<path d="M45.5 22.5H24.5C23.3065 22.5 22.1619 22.9741 21.318 23.818C20.4741 24.6619 20 25.8065 20 27V49.5C20.0005 49.7658 20.0715 50.0267 20.206 50.256C20.3404 50.4853 20.5333 50.6748 20.765 50.805C20.9892 50.9321 21.2423 50.9992 21.5 51C21.7692 50.9999 22.0335 50.9274 22.265 50.79L29 46.71C29.2489 46.5618 29.5355 46.4889 29.825 46.5H45.5C46.6935 46.5 47.8381 46.0259 48.682 45.182C49.5259 44.3381 50 43.1935 50 42V27C50 25.8065 49.5259 24.6619 48.682 23.818C47.8381 22.9741 46.6935 22.5 45.5 22.5ZM29 36C28.7033 36 28.4133 35.912 28.1666 35.7472C27.92 35.5824 27.7277 35.3481 27.6142 35.074C27.5006 34.7999 27.4709 34.4983 27.5288 34.2074C27.5867 33.9164 27.7296 33.6491 27.9393 33.4393C28.1491 33.2296 28.4164 33.0867 28.7074 33.0288C28.9983 32.9709 29.2999 33.0006 29.574 33.1142C29.8481 33.2277 30.0824 33.42 30.2472 33.6666C30.412 33.9133 30.5 34.2033 30.5 34.5C30.5 34.8978 30.342 35.2794 30.0607 35.5607C29.7794 35.842 29.3978 36 29 36ZM35 36C34.7033 36 34.4133 35.912 34.1666 35.7472C33.92 35.5824 33.7277 35.3481 33.6142 35.074C33.5006 34.7999 33.4709 34.4983 33.5288 34.2074C33.5867 33.9164 33.7296 33.6491 33.9393 33.4393C34.1491 33.2296 34.4164 33.0867 34.7074 33.0288C34.9983 32.9709 35.2999 33.0006 35.574 33.1142C35.8481 33.2277 36.0824 33.42 36.2472 33.6666C36.412 33.9133 36.5 34.2033 36.5 34.5C36.5 34.8978 36.342 35.2794 36.0607 35.5607C35.7794 35.842 35.3978 36 35 36ZM41 36C40.7033 36 40.4133 35.912 40.1666 35.7472C39.92 35.5824 39.7277 35.3481 39.6142 35.074C39.5006 34.7999 39.4709 34.4983 39.5288 34.2074C39.5867 33.9164 39.7296 33.6491 39.9393 33.4393C40.1491 33.2296 40.4164 33.0867 40.7074 33.0288C40.9983 32.9709 41.2999 33.0006 41.574 33.1142C41.8481 33.2277 42.0824 33.42 42.2472 33.6666C42.412 33.9133 42.5 34.2033 42.5 34.5C42.5 34.8978 42.342 35.2794 42.0607 35.5607C41.7794 35.842 41.3978 36 41 36Z" fill="#ECD9FF"/>
</svg>
