<svg width="45" height="45" viewBox="0 0 45 45" fill="none" xmlns="http://www.w3.org/2000/svg">
<g clip-path="url(#clip0_212_3100)">
<path d="M22.5 45C34.9264 45 45 34.9264 45 22.5C45 10.0736 34.9264 0 22.5 0C10.0736 0 0 10.0736 0 22.5C0 34.9264 10.0736 45 22.5 45Z" fill="#EEE3D3"/>
<path d="M36.9266 13.5498C35.8653 14.0208 34.7254 14.3391 33.5269 14.4822C34.7501 13.7498 35.6871 12.5891 36.1296 11.2077C34.9676 11.8978 33.696 12.3836 32.37 12.6441C31.2908 11.4938 29.7519 10.7756 28.0494 10.7756C24.7815 10.7756 22.1313 13.4248 22.1313 16.6946C22.1313 17.1579 22.1835 17.6099 22.2838 18.0439C17.3644 17.7966 13.0031 15.4402 10.0838 11.8596C9.57406 12.7341 9.28228 13.7508 9.28228 14.8356C9.28228 16.8889 10.3274 18.7005 11.9154 19.7617C10.9753 19.7326 10.0559 19.4789 9.23392 19.0217V19.0965C9.23392 21.9646 11.2739 24.3561 13.9818 24.9C13.4844 25.0363 12.9624 25.1075 12.4223 25.1075C12.0404 25.1075 11.67 25.0713 11.308 25.0033C12.0613 27.354 14.2473 29.0652 16.8366 29.1136C14.8109 30.7015 12.2583 31.6481 9.48597 31.6481C9.00846 31.6481 8.53654 31.6196 8.07324 31.5638C10.6931 33.2437 13.8038 34.2244 17.1465 34.2244C28.0333 34.2244 33.9874 25.2051 33.9874 17.3835C33.9874 17.1267 33.9817 16.8719 33.9693 16.6179C35.1294 15.7789 36.1307 14.7399 36.9266 13.5498Z" fill="#121212"/>
</g>
<defs>
<clipPath id="clip0_212_3100">
<rect width="45" height="45" fill="white"/>
</clipPath>
</defs>
</svg>
